<?xml version="1.0" encoding="UTF-8"?>
<svg width="507px" height="347px" viewBox="0 0 507 347" version="1.1" xmlns="http://www.w3.org/2000/svg" xmlns:xlink="http://www.w3.org/1999/xlink">
    <title>75C5BC2E-CAC9-4795-B835-524167A109B0@1.00x</title>
    <defs>
        <rect id="path-1" x="-6.60173174e-15" y="-9.24045755e-14" width="95.4877914" height="155.990506"></rect>
        <linearGradient x1="49.720163%" y1="97.2995318%" x2="50.3943621%" y2="-2.12300326%" id="linearGradient-3">
            <stop stop-color="#FBBAE2" offset="0%"></stop>
            <stop stop-color="#FCD3EC" offset="12.79%"></stop>
            <stop stop-color="#FEE6F5" offset="27.2%"></stop>
            <stop stop-color="#FEF4FB" offset="43.76%"></stop>
            <stop stop-color="#FFFDFE" offset="64.19%"></stop>
            <stop stop-color="#FFFFFF" offset="100%"></stop>
        </linearGradient>
        <linearGradient x1="29.0579595%" y1="99.839696%" x2="70.8167534%" y2="-6.85384266%" id="linearGradient-4">
            <stop stop-color="#FBBAE2" offset="0%"></stop>
            <stop stop-color="#FBBFE4" offset="3.37%"></stop>
            <stop stop-color="#FDDBF0" offset="27.58%"></stop>
            <stop stop-color="#FEEFF8" offset="51.85%"></stop>
            <stop stop-color="#FFFBFD" offset="76.02%"></stop>
            <stop stop-color="#FFFFFF" offset="100%"></stop>
        </linearGradient>
        <linearGradient x1="67.5879796%" y1="101.664414%" x2="37.9342826%" y2="-1.8319545%" id="linearGradient-5">
            <stop stop-color="#FBBAE2" offset="0%"></stop>
            <stop stop-color="#FBBFE4" offset="3.37%"></stop>
            <stop stop-color="#FDDBF0" offset="27.58%"></stop>
            <stop stop-color="#FEEFF8" offset="51.85%"></stop>
            <stop stop-color="#FFFBFD" offset="76.02%"></stop>
            <stop stop-color="#FFFFFF" offset="100%"></stop>
        </linearGradient>
    </defs>
    <g id="Page-1" stroke="none" stroke-width="1" fill="none" fill-rule="evenodd">
        <g id="Cadastro/Kzadores/Landing-Page/Desktop" transform="translate(-136.000000, -2875.000000)">
            <g id="Group-18" transform="translate(0.000000, 2838.000000)">
                <g id="Group-11-Copy" transform="translate(136.000000, 37.000000)">
                    <ellipse id="Oval-Copy" fill="#FDEFEE" cx="253.5" cy="309" rx="253.5" ry="38"></ellipse>
                    <g id="Group-9" transform="translate(186.000000, 0.000000)" fill-rule="nonzero" opacity="0.969587054">
                        <g id="Group">
                            <rect id="Rectangle" fill="#E2DBF6" x="0.00251401995" y="0.181551865" width="41.7785423" height="39.8017339"></rect>
                            <rect id="Rectangle" fill="#FFFFFF" x="3.60594262" y="3.73572579" width="34.5716851" height="32.6936615"></rect>
                            <rect id="Rectangle" fill="#E2DBF6" x="12.0139427" y="12.0278799" width="17.7556849" height="16.1090777"></rect>
                        </g>
                        <g id="Group-Copy" transform="translate(56.814521, 0.000000)">
                            <rect id="Rectangle" fill="#E2DBF6" x="0.00251401995" y="0.181551865" width="41.7785423" height="39.8017339"></rect>
                            <rect id="Rectangle" fill="#FFFFFF" x="3.60594262" y="3.73572579" width="34.5716851" height="32.6936615"></rect>
                            <rect id="Rectangle" fill="#E2DBF6" x="12.0139427" y="12.0278799" width="17.7556849" height="16.1090777"></rect>
                        </g>
                        <g id="Group-Copy-2" transform="translate(113.629042, 0.000000)">
                            <rect id="Rectangle" fill="#E2DBF6" x="0.00251401995" y="0.181551865" width="41.7785423" height="39.8017339"></rect>
                            <rect id="Rectangle" fill="#FFFFFF" x="3.60594262" y="3.73572579" width="34.5716851" height="32.6936615"></rect>
                            <rect id="Rectangle" fill="#E2DBF6" x="12.0139427" y="12.0278799" width="17.7556849" height="16.1090777"></rect>
                        </g>
                    </g>
                    <g id="Group-2" transform="translate(19.000000, 0.000000)">
                        <g>
                            <rect id="Rectangle" fill="#E2DBF6" x="-8.58225126e-14" y="-7.92039218e-14" width="110.602895" height="173.691746"></rect>
                            <g id="Group" transform="translate(7.128755, 8.864010)">
                                <mask id="mask-2" fill="white">
                                    <use xlink:href="#path-1"></use>
                                </mask>
                                <use id="Mask" fill="#FFFFFF" fill-rule="nonzero" xlink:href="#path-1"></use>
                                <g opacity="0.332682292" mask="url(#mask-2)" fill-rule="nonzero" id="Path">
                                    <g transform="translate(-25.710977, 4.140778)">
                                        <path d="M121.881369,126.859409 C119.119478,138.607274 110.964551,148.305096 102.328035,156.726563 C93.6894501,165.146303 84.19877,172.914919 77.5172429,182.96109 C72.3460279,190.734884 67.8782224,200.685768 68.3125492,209.934433 C60.8869053,181.530756 42.1218461,157.229234 19.9811805,137.567753 C14.2949139,132.518947 8.09152585,127.776369 4.17568455,121.256836 C-1.23597984,112.252257 -1.40053418,100.329701 3.75791662,91.1783947 C8.91636741,82.0270886 19.1970463,76.0026311 29.6954062,75.9788095 C33.5695052,75.9698332 37.6340318,76.6848276 41.1873016,75.1409093 C47.2713275,72.4980886 48.9789668,64.3976964 47.4928031,57.9275327 C46.0087093,51.4594404 42.2719114,45.7063425 40.5404685,39.2986675 C37.1962552,26.925226 42.3802344,12.7123399 52.9044675,5.40393078 C63.4269758,-1.90240688 78.5452763,-1.78882256 88.9560118,5.67736175 C102.005136,15.0358126 105.941331,33.1185063 103.878365,49.0496575 C101.815054,64.9828801 94.9334395,79.8303194 90.4421755,95.255347 C89.4324259,98.723294 88.536519,102.36179 89.1799023,105.918119 C89.8212157,109.472376 92.4119979,112.917882 95.9859663,113.429875 C101.466971,114.214608 105.755043,108.234341 111.261922,107.641908 C115.52964,107.183427 119.62142,110.279205 121.359072,114.207358 C123.096035,118.137237 122.863175,122.677849 121.881369,126.859409 Z" fill="#D7CCF8"></path>
                                        <path d="M88.8361157,274.958372 L54.5695483,274.958372 C52.8456567,271.338723 51.2689901,267.649305 49.8437254,263.905317 C43.2732373,246.667773 39.8828822,228.237956 39.9528403,209.808483 C57.7054789,200.433315 77.7225309,195.739514 97.7632503,197.18841 C98.0709265,197.21017 98.3786027,197.234347 98.6855828,197.258178 C102.765425,223.45919 99.2563848,250.573057 88.8361157,274.958372 Z" fill="#E7E1F7"></path>
                                        <path d="M73.2841825,9.28913419 C73.3460576,9.25467041 73.740863,9.78065052 74.440122,10.8212289 C75.1084436,11.8776728 76.0843828,13.4500947 77.1520801,15.5753992 C78.2222383,17.6965649 79.4330217,20.3502639 80.5545082,23.5361512 C80.6933756,23.9348614 80.8343524,24.3404697 80.9777902,24.7526311 C81.1184154,25.1658273 81.2484938,25.5900604 81.3873612,26.0191222 C81.5262287,26.4478391 81.6640414,26.8844888 81.7902526,27.3318306 C81.9199794,27.7781377 82.0518156,28.2309979 82.185058,28.6904114 C82.6923636,30.5359979 83.1659192,32.503336 83.588498,34.5841478 C84.4259214,38.747151 85.0299069,43.3685329 85.3072902,48.3493058 C85.5857282,53.3297339 85.5298297,58.6688631 85.0967039,64.2570137 C85.0415085,64.9554463 84.9877193,65.6583626 84.9174067,66.3640382 C84.8530707,67.0704037 84.7838127,67.7802181 84.7029532,68.4931367 C84.6639297,68.8497685 84.6245546,69.207435 84.584828,69.5657912 C84.5391248,69.9234577 84.4934216,70.2821589 84.4477184,70.6415499 C84.3559604,71.3606768 84.2634993,72.0839426 84.1706866,72.8110023 C84.1267412,73.174877 84.075413,73.5384069 84.0177566,73.9022816 C83.9632643,74.2665013 83.9080689,74.6314108 83.852522,74.997355 C83.7421311,75.7292434 83.6306856,76.4645808 83.5192401,77.2037122 C83.3926774,77.9400843 83.2654115,78.6802504 83.1377941,79.4235207 C83.006661,80.166446 82.889239,80.9155797 82.7401762,81.6616091 C81.6299398,87.6477801 80.2310701,93.7915727 78.6792704,100.04401 C77.1204394,106.294378 75.5014912,112.364361 73.9844962,118.23016 C72.4636341,124.09527 71.0580847,129.760679 69.8750747,135.185 C68.6906585,140.609321 67.730188,145.794622 67.026007,150.672613 C66.3218261,155.550605 65.8619815,160.119216 65.633817,164.300154 C65.5508481,166.390968 65.4488948,168.383829 65.4622542,170.26977 C65.4225275,172.156745 65.5005746,173.933006 65.5385434,175.596482 C65.5427621,176.012783 65.5736997,176.420461 65.5983091,176.820895 C65.622567,177.22133 65.6471764,177.614866 65.6703796,178.00047 C65.6935827,178.386419 65.7167859,178.765125 65.7389344,179.136242 C65.7631922,179.507015 65.7758485,179.871925 65.8180361,180.225452 C65.8865909,180.935267 65.9533879,181.61404 66.0159661,182.261426 C66.0465521,182.585292 66.0767865,182.90157 66.1063178,183.20957 C66.1207319,183.363743 66.135146,183.515846 66.1492086,183.66588 C66.1688961,183.815223 66.1885836,183.962153 66.2079196,184.107703 C66.3601464,185.270722 66.4951467,186.304403 66.6122172,187.200811 C66.6266313,187.312905 66.6406938,187.423275 66.6544048,187.530885 C66.6726861,187.63815 66.6899127,187.743001 66.7067877,187.845783 C66.7412409,188.051691 66.7732331,188.248632 66.8041707,188.43695 C66.8639364,188.813931 66.917374,189.156077 66.9655382,189.462008 C67.1508119,190.68711 67.2147964,191.340016 67.1448354,191.356164 C67.0748743,191.371402 66.8741317,190.748503 66.5549124,189.54444 C66.4768654,189.242303 66.3900293,188.904986 66.2940526,188.533179 C66.2469431,188.346585 66.1980758,188.151369 66.1470992,187.947185 C66.1217866,187.845438 66.0961225,187.740932 66.0697553,187.634701 C66.0479584,187.527436 66.0258099,187.418446 66.0029583,187.307042 C65.8299892,186.412013 65.6303014,185.380747 65.4060041,184.219797 C65.3789337,184.074247 65.3515118,183.926628 65.3240899,183.777284 C65.302293,183.626905 65.2801445,183.474457 65.2576444,183.320285 C65.2133475,183.01125 65.1676443,182.694627 65.1208864,182.369382 C65.0287768,181.718546 64.932097,181.036324 64.8311983,180.32306 C64.7749482,179.967118 64.7468232,179.600484 64.7081512,179.226952 C64.6712371,178.85342 64.6332683,178.4723 64.5952995,178.083247 C64.5573307,177.69454 64.5186587,177.298244 64.4796352,176.89436 C64.4406117,176.490131 64.3956116,176.079349 64.3773303,175.6596 C64.283463,173.981292 64.1509237,172.185717 64.1393221,170.278392 C64.0742829,168.371413 64.1273689,166.356133 64.1642831,164.239451 C64.3006896,160.007812 64.6800262,155.381946 65.3163555,150.44739 C65.9533879,145.51249 66.858663,140.271314 67.9991338,134.799741 C69.1389015,129.326789 70.511404,123.625854 72.0083598,117.743155 C73.5010969,111.85942 75.1052795,105.789782 76.6591886,99.5604535 C78.2046601,93.3304347 79.6084518,87.2297553 80.7366179,81.3008385 C80.88779,80.5613622 81.0073215,79.8205063 81.1405639,79.0851689 C81.2713454,78.3494866 81.4010722,77.6172533 81.5300959,76.8881241 C81.6454086,76.1572705 81.759315,75.4302107 81.8735731,74.7066001 C81.9305263,74.3447947 81.9874795,73.9840241 82.0440812,73.6239433 C82.1027922,73.2642074 82.1569329,72.9048164 82.2022846,72.5457703 C82.2989645,71.8276781 82.3959959,71.1137248 82.4916211,70.4032205 C82.5397852,70.0479684 82.5872462,69.693751 82.6354104,69.3405683 C82.6772464,68.9870407 82.7190824,68.6345478 82.7602153,68.2827447 C82.8459967,67.5794834 82.9201765,66.8796712 82.989786,66.1836529 C83.0657237,65.4876347 83.1244347,64.7950655 83.1859582,64.1066351 C83.6644357,58.5978126 83.7836156,53.3376667 83.5835762,48.428634 C83.3845914,43.5196013 82.8741217,38.9620268 82.1414642,34.8480001 C81.7712682,32.7916766 81.3532596,30.8446879 80.9036104,29.0153119 C80.7844304,28.5596924 80.6673599,28.1102812 80.5520472,27.6677681 C80.4402501,27.2238754 80.3164999,26.7906747 80.1927497,26.364717 C80.0682963,25.9387594 79.9533352,25.5169406 79.8278271,25.1058138 C79.6998582,24.6957218 79.5732954,24.2918381 79.4495452,23.8951973 C78.4489965,20.7220714 77.3633695,18.0607846 76.4173131,15.9116816 C74.501294,11.6186492 73.1319556,9.37883621 73.2841825,9.28913419 Z" fill="url(#linearGradient-3)"></path>
                                        <path d="M112.37044,117.972004 C112.439079,117.986239 112.439079,118.293772 112.374579,118.870051 C112.339398,119.157676 112.300768,119.516006 112.223162,119.932342 C112.140037,120.347305 112.037942,120.825764 111.917912,121.363946 C111.790638,121.900068 111.614042,122.486645 111.433652,123.133973 C111.340869,123.456607 111.220494,123.785076 111.107017,124.131393 C110.986297,124.474964 110.876614,124.838786 110.732784,125.203294 C110.184025,126.672996 109.466602,128.31294 108.566719,130.073013 C107.659248,131.828281 106.553795,133.692695 105.262779,135.621293 C103.971417,137.549548 102.488973,139.538897 100.843729,141.556048 C97.5577244,145.600303 93.6025851,149.711145 89.5222416,154.029983 C87.4851741,156.192319 85.5212286,158.314841 83.6959389,160.417455 C81.8678898,162.517324 80.1884991,164.606896 78.6977768,166.665921 C75.709434,170.784313 73.5057726,174.819645 72.0657528,178.371368 C71.355573,180.151005 70.8130218,181.799529 70.4143002,183.270947 C70.3577341,183.453201 70.3163443,183.635455 70.2742647,183.81462 C70.2318402,183.993442 70.1897605,184.168832 70.1490606,184.341132 C70.0697302,184.686419 69.9779828,185.016261 69.9158981,185.336836 C69.7979372,185.978673 69.6685941,186.564563 69.5809857,187.09588 C69.50269,187.628226 69.4292232,188.102224 69.3598953,188.513755 C69.2978106,188.925628 69.2664233,189.276407 69.2202047,189.559913 C69.1353556,190.126926 69.056715,190.427251 68.9860075,190.427251 C68.9156448,190.427251 68.8566644,190.125896 68.8087212,189.546871 C68.7887162,189.257873 68.7559492,188.89817 68.7542247,188.474283 C68.7604331,188.05074 68.7725052,187.561297 68.7911306,187.0087 C68.8194136,186.457819 68.8921906,185.848246 68.955655,185.177922 C68.9915261,184.842931 69.056715,184.498674 69.1101769,184.137598 C69.1388048,183.957403 69.1684675,183.77309 69.1984751,183.58603 C69.2281378,183.398628 69.2574555,183.20745 69.3022945,183.016272 C69.6061645,181.473805 70.0686954,179.739131 70.7154109,177.865793 C72.0281571,174.126667 74.1745626,169.880251 77.1611808,165.587842 C78.6525929,163.439234 80.3385371,161.278271 82.1762437,159.125545 C84.011536,156.970073 85.9868637,154.813572 88.0339338,152.640596 C92.1329026,148.30288 96.0932157,144.266519 99.3950862,140.362988 C102.710753,136.471469 105.374531,132.718957 107.299156,129.3869 C108.254571,127.717439 109.042701,126.165019 109.676655,124.773573 C109.841869,124.428285 109.973627,124.084371 110.117111,123.758991 C110.253698,123.430865 110.398217,123.1199 110.515833,122.814084 C110.744856,122.200736 110.97457,121.64505 111.156685,121.137072 C111.331902,120.627035 111.491942,120.173631 111.635427,119.781322 C111.773393,119.387639 111.873763,119.048873 111.973443,118.779439 C112.166596,118.238169 112.301113,117.958438 112.37044,117.972004 Z" fill="url(#linearGradient-4)"></path>
                                        <path d="M15.8017528,93.8288628 C15.8968466,93.7250834 16.9827906,94.5628786 18.8711324,96.1724902 C19.3410488,96.5786732 19.8633709,97.0291857 20.4346281,97.5219661 C20.9940854,98.0281484 21.5767955,98.6030587 22.2143408,99.2113022 C23.4741608,100.441191 24.9526273,101.804413 26.4404643,103.448732 C27.1970504,104.259723 27.9900777,105.10989 28.8157283,105.995107 C29.2370565,106.431187 29.6229849,106.913314 30.0352896,107.388569 C30.4434297,107.867947 30.8585108,108.355573 31.2812273,108.852133 C31.7035967,109.349725 32.1325602,109.855563 32.568812,110.369649 C32.785029,110.628067 33.0099225,110.883048 33.2240572,111.150057 C33.4340272,111.420158 33.6457325,111.691978 33.858479,111.966203 C34.7098119,113.064477 35.586133,114.194711 36.4839717,115.354153 C39.9705149,120.069243 43.5441697,125.449277 46.8495487,131.353706 C50.1108514,137.28219 52.7821557,143.15363 54.9328733,148.595519 C55.4395777,149.967675 55.9337881,151.306155 56.4137691,152.60649 C56.533157,152.93123 56.6518508,153.254252 56.7691564,153.574525 C56.8819502,153.896516 56.9787793,154.221256 57.0832437,154.540498 C57.2880079,155.1807 57.4889544,155.810593 57.6864303,156.430177 C57.8828651,157.04976 58.0765233,157.658347 58.266364,158.255938 C58.4503046,158.855247 58.6543747,159.436343 58.800486,160.02225 C59.112491,161.187534 59.412349,162.30574 59.6983247,163.372744 C60.3022054,165.497816 60.671822,167.46447 61.0449092,169.17683 C61.2219087,170.035587 61.3996023,170.831115 61.5311373,171.569941 C61.6449722,172.311517 61.7494366,172.989864 61.8431423,173.600169 C62.2033883,176.04139 62.3356174,177.398082 62.195753,177.422463 C62.0565828,177.446192 61.6581604,176.136922 61.0601797,173.757213 C60.9144154,173.16134 60.7519924,172.499832 60.5749929,171.775782 C60.3879287,171.053794 60.156094,170.276479 59.9277299,169.436622 C59.4512195,167.762406 58.9878973,165.837676 58.2996815,163.758652 C57.9762236,162.713641 57.6381893,161.618803 57.2852314,160.478604 C57.1210731,159.904725 56.8999972,159.336343 56.6987036,158.749406 C56.4932454,158.164186 56.2843166,157.56797 56.070876,156.961445 C55.8595177,156.354232 55.6439948,155.737398 55.4250013,155.110598 C55.3139428,154.797541 55.2101725,154.47933 55.0907846,154.163868 C54.9668849,153.850125 54.8419441,153.533975 54.7166562,153.215077 C54.2165458,151.940515 53.701512,150.62884 53.173984,149.283831 C50.9535079,143.947783 48.2676271,138.181497 45.0507478,132.333081 C41.7894451,126.50872 38.3133136,121.172672 34.9541406,116.455864 C34.0906607,115.293673 33.2480042,114.160003 32.4299888,113.058635 C32.2255717,112.782692 32.02289,112.508811 31.8219435,112.237335 C31.6164852,111.968265 31.4009623,111.711222 31.1941158,111.450398 C30.7766052,110.931158 30.3660357,110.420508 29.9624075,109.917762 C29.5591262,109.414673 29.1631332,108.920518 28.7744284,108.434954 C28.3815589,107.952139 28.0154129,107.462108 27.614214,107.017437 C26.8312515,106.111258 26.0795241,105.241504 25.3621556,104.410925 C23.9583065,102.720902 22.5655633,101.301667 21.393896,100.006142 C20.8004271,99.3652531 20.2617933,98.7546042 19.7471065,98.2113087 C19.2247844,97.674886 18.7475798,97.1848548 18.3179222,96.7432769 C16.6093564,94.9673434 15.7063118,93.9326422 15.8017528,93.8288628 Z" fill="url(#linearGradient-5)"></path>
                                        <path d="M88.9110255,274.958372 L54.8671171,274.958372 C53.154427,271.326679 51.5880054,267.624986 50.1720018,263.86854 C64.6173135,262.547546 78.5218121,255.266833 87.6129358,243.903931 C97.9786356,230.946965 101.8117,213.022411 97.7798072,196.929645 C98.0854842,196.951477 98.3911612,196.975734 98.6961466,196.999645 C102.749824,223.287835 99.2635854,250.491919 88.9110255,274.958372 Z" fill="#A894E3"></path>
                                    </g>
                                </g>
                            </g>
                        </g>
                    </g>
                    <g id="Group" transform="translate(390.000000, 71.000000)" fill-rule="nonzero">
                        <rect id="Rectangle" fill="#B3DBE4" x="27.635927" y="176.252258" width="65.9603558" height="63.5943286"></rect>
                        <rect id="Rectangle" fill="#F0FBFF" x="0.160878917" y="176.252258" width="65.9603558" height="63.5943286"></rect>
                        <rect id="Rectangle" fill="#FCE8F6" x="15.3823162" y="182.734914" width="17.5089888" height="10.5008327"></rect>
                        <g transform="translate(13.495449, 0.000000)" id="Path">
                            <g transform="translate(0.448146, 0.000000)">
                                <path d="M12.9346649,103.777678 C9.4596803,101.183236 5.44414254,99.169639 2.66415486,95.8394597 C-0.11583282,92.5092805 -1.19693914,87.1267816 1.77610324,83.9514944 C5.09664408,80.3889771 11.2743945,81.5506676 15.2127104,78.6851645 C18.8421387,76.0519996 19.4985247,70.7469467 18.1857527,66.4874151 C16.8729808,62.2278836 14.0157712,58.6266433 11.6218929,54.8317879 C4.86497844,44.06679 1.81471418,31.0558573 3.0888752,18.4321547 C3.51359554,14.2500692 4.4402581,9.99053762 6.67969262,6.46674334 C8.95773808,2.90422605 12.7416102,0.154892056 16.9502027,0.038723014 C22.5873999,-0.154892056 27.4909893,4.4144236 29.57598,9.68075351 C31.6609708,14.9470834 31.506527,20.7555355 31.4293052,26.4090956 C31.3520833,29.7392748 31.3134723,33.1469 32.5876334,36.2060181 C33.8617944,39.2651362 36.7576149,41.8983012 40.0781557,41.7434091 C43.9778607,41.5885171 46.7578484,37.9098307 50.3486658,36.3996332 C55.5997536,34.2311444 62.0477806,37.4451546 64.5574917,42.5178694 C67.1058137,47.6293073 66.2563731,53.9024355 63.5536073,58.9364274 C60.8508415,63.9316962 56.5264162,67.8814436 52.0475471,71.3665149 C48.8814501,73.8447878 45.4836873,76.2068916 43.2442528,79.5757939 C41.0048183,82.9446961 40.1553776,87.5914578 42.3948121,90.96036 C44.9817451,94.8713844 50.5417205,95.6458447 53.6305957,99.208362 C57.4916897,103.622786 55.985863,110.786543 52.2019909,115.278413 C48.4567297,119.770282 43.0125872,122.44217 38.1862197,125.733627 C36.3715055,126.972763 34.6340132,128.328069 33.0895756,129.915712 C32.0470802,130.999956 30.270977,134.910981 29.1898706,135.453103 C26.409883,136.847132 27.2593236,128.870191 26.7573814,126.237026 C25.0585001,117.408179 20.1549107,109.160177 12.9346649,103.777678 Z" fill="#D7CCF8"></path>
                                <path d="M18.9579715,8.40289405 C19.0351934,8.44161706 18.9579715,8.8288472 18.7649168,9.56458447 C18.687695,9.95181461 18.5332512,10.3777678 18.4174184,10.91989 C18.3401965,11.1909511 18.3015856,11.5007352 18.2243637,11.8105193 C18.1857527,11.9654113 18.1471418,12.1203034 18.1085309,12.2751955 C18.0699199,12.4300875 18.031309,12.6237026 17.992698,12.7785946 C17.8768652,13.4756089 17.6838105,14.2500692 17.5679777,15.1406985 C17.5293668,15.3730366 17.4907558,15.5666516 17.4521449,15.7989897 C17.4135339,16.0313278 17.374923,16.2636659 17.374923,16.496004 C17.3363121,16.9606801 17.2590902,17.4640793 17.2204792,17.9674785 C17.0660355,20.0197983 16.9888136,22.3431791 17.1046464,24.898898 C17.3363121,30.0490589 18.4174184,36.1285721 20.3479654,42.6340385 C20.4637982,43.0599916 20.579631,43.4472218 20.7340748,43.8731749 C20.8499076,44.2991281 21.0043514,44.6863582 21.1201842,45.1123114 C21.3904608,45.9642177 21.6607373,46.777401 21.9310139,47.6293073 C22.510178,49.3331199 23.0893421,51.0756555 23.7071172,52.8181912 C24.9426672,56.3419854 26.2940501,59.9819487 27.5296002,63.7768041 C28.1473753,65.6742318 28.7651503,67.5716595 29.3057035,69.4303642 C29.4215363,69.8950403 29.57598,70.3597165 29.6918129,70.8243927 C29.8076457,71.2890688 29.9234785,71.753745 30.0779223,72.2184212 C30.1937551,72.6830974 30.3095879,73.1477735 30.4254207,73.6124497 C30.5412535,74.0771259 30.6570864,74.541802 30.7729192,75.0064782 C31.6223599,78.6851645 32.3173568,82.2864048 32.7420771,85.7327531 C33.2054084,89.1791013 33.475685,92.4705575 33.5915178,95.5296756 C33.6301287,96.3041359 33.6301287,97.0398732 33.6687397,97.8143335 C33.6687397,98.2015636 33.6687397,98.5500707 33.7073506,98.9373009 C33.7073506,99.285808 33.7073506,99.6730381 33.7073506,100.021545 C33.7073506,100.71856 33.7073506,101.454297 33.7073506,102.112588 C33.6687397,102.809602 33.6687397,103.467894 33.6301287,104.126185 C33.437074,109.353792 32.8965209,113.5746 32.3945787,116.440103 C32.162913,117.872855 31.8926364,118.995822 31.7381927,119.731559 C31.545138,120.467297 31.4293052,120.854527 31.3520833,120.854527 C31.2748614,120.854527 31.2748614,120.428574 31.3520833,119.654113 C31.3906942,118.879653 31.545138,117.756686 31.6609708,116.323934 C31.9312474,113.419708 32.2401349,109.237623 32.2787458,104.048739 C32.2787458,103.390447 32.2787458,102.732156 32.2787458,102.073865 C32.2787458,101.415574 32.2401349,100.71856 32.2401349,99.9828223 C32.2401349,99.6343151 32.2401349,99.285808 32.201524,98.8985779 C32.201524,98.5500707 32.162913,98.1628406 32.162913,97.8143335 C32.1243021,97.0785962 32.0856911,96.3428589 32.0470802,95.5683987 C31.8540255,92.5480036 31.506527,89.2952704 31.0045848,85.9263682 C30.5026426,82.5574659 29.8462566,79.0336717 28.958205,75.4324314 C28.8423722,74.9677552 28.7651503,74.541802 28.6107065,74.0771259 C28.4948737,73.6124497 28.3790409,73.1864965 28.2632081,72.7218204 C28.1473753,72.2571442 28.0315424,71.792468 27.8770987,71.3665149 C27.7612659,70.9018387 27.6068221,70.4371625 27.4909893,69.9724864 C26.9504361,68.1137817 26.371272,66.255077 25.714886,64.3963723 C24.479336,60.64024 23.1279531,57.0002767 21.9310139,53.4377594 C21.3132389,51.6565007 20.7340748,49.9139651 20.1549107,48.1714295 C19.8846341,47.3195232 19.6143575,46.4676168 19.3440809,45.6157105 C19.2282481,45.1897574 19.0738044,44.7638042 18.9579715,44.3378511 C18.8421387,43.9118979 18.7263059,43.4859448 18.6104731,43.0599916 C16.718537,36.3996332 15.7532635,30.1265049 15.7146526,24.821452 C15.6760416,22.188287 15.8690963,19.7874602 16.1393729,17.7351404 C16.2165948,17.2317412 16.2938167,16.7283421 16.3710386,16.2249429 C16.4096495,15.9926048 16.4482604,15.7602667 16.5254823,15.5279286 C16.5640933,15.2955905 16.6413151,15.0632525 16.6799261,14.8696374 C16.8343698,13.9790081 17.1046464,13.2045478 17.2977011,12.5075335 C17.3363121,12.3139185 17.374923,12.1590264 17.4521449,12.0041344 C17.4907558,11.8492423 17.5679777,11.6943502 17.6065886,11.5394582 C17.7224215,11.2296741 17.7996433,10.958613 17.9154762,10.6875519 C18.1085309,10.1454297 18.3015856,9.71947652 18.4560293,9.3709694 C18.7263059,8.71267816 18.9193606,8.36417103 18.9579715,8.40289405 Z" fill="#E7E1F7"></path>
                                <path d="M49.9625564,103.235555 C50.0011673,103.351724 49.7308907,103.584063 49.2289485,103.893847 C49.1131157,103.971293 48.9586719,104.048739 48.8042282,104.126185 C48.6497844,104.203631 48.4953407,104.3198 48.302286,104.435969 C47.9547875,104.629584 47.5300672,104.861922 47.1053468,105.132983 C46.8736812,105.249152 46.6420155,105.404044 46.4103499,105.520213 C46.1786843,105.675105 45.9470186,105.829997 45.676742,105.984889 C45.1747998,106.294674 44.6728576,106.681904 44.1323044,107.069134 C43.0511981,107.843594 41.9314808,108.772946 40.8503745,109.857191 C39.7692682,110.941435 38.8039947,112.02568 37.993165,113.071201 C37.6070556,113.613323 37.2209462,114.116722 36.8734477,114.581399 C36.7190039,114.813737 36.5259492,115.046075 36.3715055,115.278413 C36.2170617,115.510751 36.062618,115.743089 35.9467851,115.936704 C35.6765086,116.362657 35.4448429,116.749887 35.2131773,117.098394 C35.0973445,117.253287 35.0201226,117.446902 34.9042898,117.563071 C34.8270679,117.717963 34.749846,117.834132 34.6726241,117.989024 C34.3637366,118.492423 34.132071,118.724761 33.9776272,118.686038 C33.8617944,118.647315 33.8231834,118.298808 33.9390163,117.67924 C33.9776272,117.524348 33.9776272,117.369456 34.0162381,117.17584 C34.0548491,116.982225 34.132071,116.827333 34.1706819,116.594995 C34.2865147,116.207765 34.4409585,115.704366 34.6726241,115.23969 C34.7884569,115.007352 34.9042898,114.736291 35.0201226,114.46523 C35.1359554,114.194168 35.2903992,113.923107 35.4448429,113.652046 C35.7151195,113.071201 36.1012289,112.529079 36.4873383,111.909511 C37.298168,110.709097 38.2634415,109.508684 39.4603807,108.346993 C40.6573198,107.185303 41.8928699,106.255951 43.12842,105.48149 C43.746195,105.132983 44.3253591,104.784476 44.9045232,104.513415 C45.1747998,104.358523 45.4450764,104.242354 45.715353,104.126185 C45.9856296,104.010016 46.2559061,103.93257 46.4875718,103.816401 C46.989514,103.622786 47.4528453,103.467894 47.8775656,103.351724 C48.0706203,103.313001 48.263675,103.235555 48.4567297,103.196832 C48.6497844,103.158109 48.8042282,103.119386 48.9586719,103.119386 C49.576447,103.080663 49.9239454,103.119386 49.9625564,103.235555 Z" fill="#E7E1F7"></path>
                                <path d="M6.44802698,86.5459364 C6.52524886,86.4297673 7.06580202,86.5459364 7.99246458,86.8944435 C8.22413022,86.9718895 8.4944068,87.0880586 8.76468338,87.2042276 C9.03495996,87.3203967 9.34384748,87.4752887 9.652735,87.6301808 C10.27051,87.9399649 11.0427288,88.288472 11.7763367,88.7918712 C12.1624461,89.0242093 12.5485555,89.2565474 12.9732758,89.5276085 C13.2049415,89.6437775 13.3979962,89.7986696 13.5910509,89.9535616 C13.7841056,90.1084537 14.0157712,90.2633457 14.2088259,90.4182378 C14.4404916,90.5731298 14.6335463,90.7280219 14.8652119,90.882914 C14.9810447,90.96036 15.0968775,91.037806 15.2127104,91.115252 C15.3285432,91.1926981 15.444376,91.3088671 15.5215979,91.3863131 C15.9463182,91.7348203 16.4096495,92.1220504 16.8729808,92.5092805 C18.649084,94.0969241 20.4637982,95.9943518 22.1626796,98.1628406 C23.82295,100.370052 25.1357219,102.65471 26.1782173,104.784476 C26.409883,105.326598 26.6415486,105.86872 26.8732142,106.37212 C26.9118252,106.488289 26.9890471,106.643181 27.027658,106.75935 C27.0662689,106.875519 27.1434908,107.030411 27.1821018,107.14658 C27.2593236,107.417641 27.3751565,107.649979 27.4523783,107.92104 C27.5296002,108.153378 27.645433,108.424439 27.7226549,108.656777 C27.7998768,108.889115 27.9157096,109.121454 27.9543206,109.353792 C28.0701534,109.818468 28.2245971,110.283144 28.34043,110.709097 C28.6107065,111.561003 28.7265394,112.374187 28.8809831,113.071201 C28.958205,113.419708 28.9968159,113.729492 29.0354269,114.039276 C29.0740378,114.34906 29.1126488,114.620122 29.1126488,114.891183 C29.1898706,115.897981 29.1512597,116.440103 29.0354269,116.478826 C28.8809831,116.517549 28.6493175,115.975427 28.34043,115.046075 C28.2632081,114.813737 28.1859862,114.542676 28.1087643,114.271614 C28.0315424,114.000553 27.9157096,113.690769 27.7998768,113.342262 C27.5682112,112.683971 27.3365455,111.948234 26.9890471,111.13505 C26.8346033,110.74782 26.6801595,110.321867 26.4871048,109.857191 C26.409883,109.624853 26.2940501,109.431238 26.2168283,109.1989 C26.1009954,108.966562 26.0237736,108.734223 25.9079407,108.501885 C25.7921079,108.269547 25.714886,108.037209 25.5990532,107.804871 C25.5604423,107.688702 25.4832204,107.572533 25.4446095,107.456364 C25.3673876,107.340195 25.3287766,107.224026 25.2515548,107.107857 C25.0198891,106.643181 24.7496125,106.139781 24.479336,105.636382 C23.3982296,103.622786 22.0854577,101.49302 20.5024091,99.401977 C18.9193606,97.3109343 17.2204792,95.4909526 15.5602088,93.903309 C15.1354885,93.5160789 14.7493791,93.1288488 14.3246587,92.7803416 C14.2088259,92.7028956 14.131604,92.5867266 14.0157712,92.5092805 C13.8999384,92.4318345 13.8227165,92.3543885 13.7068837,92.2382194 C13.513829,92.0833274 13.3207743,91.8897123 13.1277196,91.7348203 C12.9346649,91.5799282 12.7416102,91.4250361 12.5485555,91.2701441 C12.3555008,91.115252 12.1624461,90.96036 11.9693914,90.8054679 C11.583282,90.5344068 11.2357835,90.2633457 10.8882851,89.9922846 C10.1932882,89.4501624 9.53690218,89.0242093 8.99634902,88.6369791 C8.72607244,88.4433641 8.45579586,88.249749 8.22413022,88.0948569 C7.99246458,87.9399649 7.76079894,87.7850728 7.5291333,87.6689038 C6.83413638,87.0106125 6.40941604,86.6621054 6.44802698,86.5459364 Z" fill="#E7E1F7"></path>
                                <path d="M57.0283584,43.4084987 C57.1055803,43.5246678 56.7580818,44.06679 56.024474,44.9574193 C55.8314193,45.1897574 55.6383646,45.4220955 55.4066989,45.6931566 C55.1750333,45.9642177 54.9433676,46.2740018 54.711702,46.5837859 C54.2097598,47.2420771 53.5919847,47.9390914 52.9742097,48.7909977 C52.6653222,49.2169508 52.3178237,49.642904 51.9703253,50.0688572 C51.6228268,50.5335333 51.2753283,50.9982095 50.9278299,51.5016087 C50.7347752,51.7339468 50.5803314,52.0050079 50.3872767,52.2373459 C50.3100548,52.353515 50.194222,52.508407 50.1170001,52.6245761 C50.0397783,52.7407451 49.9239454,52.8956372 49.8467236,53.0118062 C49.4992251,53.5539284 49.1131157,54.0960506 48.7270063,54.6768958 C47.2211796,56.9615537 45.676742,59.5172726 44.2095263,62.3053296 C42.7423106,65.0933866 41.5453714,67.8427206 40.5028761,70.3597165 C40.2712104,70.9792847 40.0009338,71.598853 39.7692682,72.2184212 C39.6920463,72.3733132 39.6534354,72.5282053 39.5762135,72.6830974 C39.5376026,72.8379894 39.4603807,72.9928815 39.4217697,73.1477735 C39.3059369,73.4575576 39.228715,73.7286187 39.1128822,74.0384028 C38.9198275,74.6192481 38.6881619,75.1613703 38.5337181,75.7034924 C38.3792744,76.2456146 38.1862197,76.7490138 38.0317759,77.252413 C37.6842774,78.2204884 37.4526118,79.1498407 37.2209462,79.924301 C37.1051133,80.3115311 36.9892805,80.6987613 36.8734477,81.0085454 C36.7962258,81.3570525 36.680393,81.6668366 36.6031711,81.9378977 C36.2556727,83.0608651 36.024007,83.6804333 35.8695633,83.6417103 C35.7151195,83.6029873 35.7151195,82.9446961 35.8309523,81.7830057 C35.8695633,81.4732215 35.8695633,81.1634374 35.9081742,80.8149303 C35.9467851,80.4664232 36.024007,80.079193 36.1012289,79.6532399 C36.2556727,78.8400566 36.3715055,77.8719812 36.6417821,76.8651829 C36.7576149,76.3617837 36.8734477,75.8196615 37.0278915,75.2388163 C37.1437243,74.6966941 37.336779,74.1158489 37.4912227,73.4962806 C37.5684446,73.1864965 37.6456665,72.8767124 37.7614993,72.5669283 C37.8001103,72.4120363 37.8387212,72.2571442 37.9159431,72.1022521 C37.954554,71.9473601 38.0317759,71.792468 38.0703868,71.637576 C38.2634415,71.0180077 38.4951072,70.3597165 38.7267728,69.7014253 C39.6920463,67.0682603 40.8889855,64.2414803 42.3562012,61.3759773 C43.8620278,58.5104742 45.5222983,55.9160323 47.1053468,53.6313744 C47.5300672,53.0892522 47.9161766,52.508407 48.3408969,52.0050079 C48.4567297,51.8888388 48.5339516,51.7339468 48.6497844,51.6177777 C48.7656172,51.5016087 48.8428391,51.3467166 48.9586719,51.2305476 C49.1517266,50.9982095 49.3447813,50.7271484 49.576447,50.4948103 C49.9625564,50.0301341 50.3486658,49.565458 50.7347752,49.1007818 C51.1208846,48.6748286 51.506994,48.2488755 51.8544924,47.8616454 C52.5494894,47.0871851 53.2444863,46.4288938 53.8622613,45.8480486 C54.1711488,45.5769875 54.4414254,45.2672034 54.711702,45.0348653 C54.9819786,44.8025272 55.2136442,44.5701892 55.4453099,44.4152971 C56.4105834,43.6795598 56.9511365,43.3310527 57.0283584,43.4084987 Z" fill="#E7E1F7"></path>
                            </g>
                            <path d="M44.9062657,175.621737 C40.402451,176.239644 35.8209844,176.548598 31.1230398,176.548598 C26.4250951,176.548598 21.8048025,176.239644 17.3398138,175.621737 C15.5538183,172.5322 14.0007788,169.326805 12.6806952,166.044171 C8.21570648,154.999076 6.27440705,142.911261 7.16740479,131.055162 C7.55566468,130.939305 7.94392456,130.823447 8.33218445,130.707589 C22.4260183,126.382237 37.4516759,126.189141 51.6231618,130.051063 C52.3996815,130.244159 53.1373753,130.475874 53.9138951,130.707589 C54.302155,130.823447 54.6904149,130.939305 55.0786747,131.055162 C56.2434544,146.464229 52.6326375,162.220869 44.9062657,175.621737 Z" fill="#E7E1F7"></path>
                            <path d="M45.7997398,175.62325 C41.2802721,176.240149 36.6828826,176.548598 31.9686102,176.548598 C27.2543379,176.548598 22.6179874,176.240149 18.1374807,175.62325 C16.3452779,172.538759 14.7868408,169.338598 13.4621692,166.061326 C19.4621522,167.256567 25.6179789,167.487903 31.3841963,165.52154 C39.0205383,162.976834 45.0594822,156.769294 48.449083,149.559295 C51.3321917,143.50598 52.4620586,136.79721 52.5399804,130.088441 C53.319199,130.281221 54.0594566,130.512558 54.8386752,130.743895 C55.2282845,130.859564 55.6178938,130.975232 56.0075031,131.0909 C57.1763309,146.513359 53.5529646,162.244267 45.7997398,175.62325 Z" fill="#A894E3"></path>
                        </g>
                    </g>
                    <g id="Group-8" transform="translate(75.000000, 157.000000)">
                        <path d="M297.088255,87.6963167 C296.941834,91.5886978 297.078736,95.4618013 297.685697,99.2966293 C297.843876,100.292355 298.033412,101.285845 298.259062,102.276821 C280.977752,115.778343 257.381024,117.430063 235.453438,118.310961 C227.693128,118.622195 218.407297,118.785076 208.087841,118.811338 C206.199766,118.818323 204.278377,118.818323 202.325911,118.813853 C149.060325,118.708525 72.416102,115.328255 33.9605881,110.542962 C32.516816,102.849279 31.072764,95.0955286 30.1080096,87.315516 C28.9805964,78.2355285 28.5130572,69.1222943 29.4724923,60.0350429 C31.2522207,43.1630292 38.6838532,26.0831537 52.7503421,16.5555927 C61.5829123,10.5709031 72.255123,8 82.7453574,6.02727739 C115.887163,-0.211093072 208.752194,-1.61863082 242.297147,1.85970284 C246.255272,2.26900074 250.222916,2.75261484 254.154444,3.41559361 C258.781681,4.19367869 263.356286,5.21566621 267.796788,6.65924452 C269.747014,7.29121165 271.668404,8.00671466 273.558718,8.81357632 C283.410635,13.0266905 292.389346,20.0909208 297.016304,29.7383376 C299.105672,34.0953347 300.226086,38.7462439 300.710703,43.5245524 C301.454286,50.8497275 300.703424,58.4766376 299.66224,65.8135469 C298.632814,73.0554655 297.361499,80.4071821 297.088255,87.6963167 Z" id="Path" fill="#B3DBE4"></path>
                        <path d="M299.66196,54.5557593 C298.373847,65.5316482 296.713943,76.7109288 297.088255,87.6963167 C297.212839,91.4115682 297.572592,95.1053071 298.259062,98.762726 C298.069247,98.9426495 297.877752,99.1220141 297.685697,99.2966293 C280.4573,115.174873 257.138575,117.147605 235.453438,118.203398 C227.690609,118.581685 218.404778,118.777812 208.087841,118.811338 C206.199766,118.818323 204.278377,118.818323 202.325911,118.813853 C149.057805,118.687012 72.416102,114.586211 33.9605881,108.785915 C32.516816,99.4569958 31.072764,90.0565546 30.1080096,80.6270575 C31.1561932,76.1194723 32.7970596,71.8583041 35.121597,68.0022429 C78.292817,73.9078668 121.718524,77.0869799 165.165788,77.5272895 C187.167564,77.7474443 209.54869,77.1967779 230.519081,69.1345872 C239.157076,65.8096355 247.572221,61.1581675 254.533514,54.1296984 C261.494808,47.1062582 266.93758,37.533437 268.654876,26.7634543 C269.724897,20.0557183 269.300472,13.2239358 267.796508,6.66008267 C269.746734,7.2920498 271.668124,8.00755281 273.558438,8.81441447 C283.410355,13.0275287 292.389066,20.0917589 297.016024,29.7391757 C299.105392,34.0961728 300.225806,38.7470821 300.710423,43.5253906 C300.463495,47.2286285 300.086944,50.919853 299.66196,54.5557593 Z" id="Path" fill="#8DC9D6"></path>
                        <path d="M27.0687253,90.5301109 L27.0687253,90.5301109 C119.124382,75.9537975 212.281135,75.9537975 304.336511,90.5301109 L304.336511,90.5301109 L304.336511,136.510329 L27.0687253,136.510329 L27.0687253,90.5301109 Z" id="Path" fill="#B3DBE4"></path>
                        <ellipse id="Oval" fill="#8DC9D6" cx="169.14799" cy="136.510329" rx="139.03886" ry="2.36889888"></ellipse>
                        <path d="M299.654121,153.455821 C297.065858,122.306435 294.477315,99.6581525 291.888772,68.5087665 C291.228898,60.5625203 290.609338,52.3033637 293.446489,44.8493924 C296.065268,37.9706733 301.770925,32.2055797 308.817048,30.0369993 C315.863171,27.8684189 324.104178,29.5737803 329.340336,34.7546814 C336.768889,42.1050011 336.867716,53.8522698 336.476047,64.284477 C335.251767,96.8791175 334.027486,120.972096 332.803205,153.566737 C321.239871,153.793597 311.217735,153.22924 299.654121,153.455821 Z" id="Path" fill="#B3DBE4"></path>
                        <path d="M45.1944057,62.8677196 C45.1795676,63.3409964 45.1624899,63.8148321 45.1448522,64.2833594 C43.9188917,96.8785588 42.695731,120.972096 41.4722902,153.567295 C29.9083956,153.794155 19.8865402,153.22952 8.32264558,153.45638 C5.73522241,122.306435 3.1449996,99.6578731 0.55757642,68.5082078 C-0.102297679,60.5616821 -0.722696917,52.3042018 2.11473371,44.8482749 C2.92774788,42.7148969 4.03752341,40.6874056 5.3942268,38.8429109 C8.40215523,34.7390359 12.6234457,31.5325431 17.4847329,30.0378375 C24.5308556,27.8673014 32.7732627,29.5740597 38.0080212,34.7535639 C45.1028576,41.7756071 45.5107645,52.8051378 45.1944057,62.8677196 Z" id="Path" fill="#B3DBE4"></path>
                        <path d="M316.121857,29.9593305 C316.108419,30.124726 315.618762,30.2557572 314.734078,30.3820389 C313.849673,30.5546983 312.56156,30.7466353 310.980326,31.2341608 C309.401612,31.7180542 307.537614,32.5050796 305.57227,33.7307382 C304.601917,34.3638229 303.595728,35.0835167 302.614455,35.9468139 C301.638502,36.8148607 300.673188,37.8019252 299.770866,38.9205797 C297.960621,41.1592855 296.393945,43.9679352 295.243015,47.1895147 C294.088725,50.4136087 293.35718,54.0592936 293.063499,57.9480427 C292.770097,61.8488053 292.914558,66.0068808 293.302588,70.350188 C293.492403,72.522121 293.740451,74.7437844 294.002496,77.0123843 C294.264262,79.2885277 294.529668,81.5979177 294.798713,83.9352462 C296.919717,102.645887 298.575981,119.614847 299.539616,131.924796 C300.50269,144.234744 300.772855,151.885123 300.12138,151.959139 C299.470185,152.032358 298.020533,144.514687 296.20357,132.301406 C294.386606,120.088124 292.202051,103.178673 290.081047,84.4680319 C289.820121,82.1273508 289.562274,79.8146082 289.308348,77.5351122 C289.06058,75.2475142 288.83101,72.9761204 288.666671,70.7228866 C288.329315,66.222286 288.262964,61.7865026 288.706986,57.5577429 C289.152128,53.3250718 290.106804,49.328201 291.569053,45.7791831 C293.029063,42.2298859 294.982649,39.1466015 297.232156,36.7296486 C298.35677,35.5187973 299.539616,34.4828406 300.724141,33.5977513 C301.913987,32.7174116 303.12035,32.0122458 304.275759,31.42051 C306.613735,30.2755935 308.791291,29.6740792 310.589777,29.4326912 C312.393302,29.1876713 313.805439,29.2927197 314.737157,29.4279417 C315.670276,29.6098208 316.135575,29.7992434 316.121857,29.9593305 Z" id="Path" fill="#8DC9D6"></path>
                        <path d="M19.5141887,30.3328672 C19.4682747,30.1761327 19.9047379,29.9037331 20.8134996,29.522653 C21.0411099,29.4315737 21.3042757,29.3622864 21.593758,29.2742804 C21.8846401,29.1946559 22.2035186,29.0915631 22.5548729,29.019482 C22.907067,28.9552236 23.2886573,28.8890095 23.6996438,28.8216779 C23.8023905,28.8054736 23.9068169,28.78899 24.0129231,28.7722269 C24.1195892,28.763566 24.228215,28.7549051 24.3379607,28.7456854 C24.558852,28.728643 24.7864624,28.7116005 25.0202319,28.69372 C26.8926282,28.5786137 29.2331235,28.7342307 31.8384643,29.4829804 C33.1268566,29.88697 34.5025975,30.3831564 35.858741,31.133303 C36.0300787,31.2238235 36.2028162,31.3149028 36.3766736,31.4068202 C36.5522107,31.4965025 36.7134697,31.6118882 36.8845275,31.714981 C37.2218835,31.9281512 37.5673586,32.1407626 37.9111538,32.3667844 C38.2415108,32.6129219 38.5760673,32.8621327 38.9148232,33.114696 L39.16959,33.3063536 C39.2532991,33.3720089 39.3314089,33.4457663 39.4128783,33.515333 C39.5741373,33.6572602 39.7365162,33.8003049 39.9000149,33.943629 C40.0629537,34.0880707 40.2270123,34.2330711 40.3921908,34.3794684 C40.5528899,34.5303359 40.7018305,34.695452 40.8588901,34.8549804 C41.0139899,35.0164645 41.1696496,35.1787867 41.3264292,35.3422265 L41.5618786,35.5889227 C41.6399884,35.6716205 41.7077396,35.764376 41.78165,35.8521027 C42.0702924,36.2099939 42.3620144,36.5720759 42.657096,36.9380692 C42.9188619,37.3227813 43.1831475,37.7116841 43.4502328,38.1044984 C44.4712598,39.7056494 45.3265485,41.4965023 45.9788636,43.4083286 C46.6328584,45.3204342 47.0928386,47.3479256 47.3862404,49.4310144 C47.6802021,51.5149414 47.8227036,53.655304 47.8716972,55.8266782 C47.9212507,57.9983318 47.8772964,60.202394 47.8075855,62.4257337 C47.7325553,64.6365011 47.6561252,66.8939257 47.5782954,69.1921404 C47.4133968,73.7860553 47.2269411,78.5422924 47.0189282,83.4127977 C46.1865965,102.894819 45.1678092,120.521449 44.193256,133.27059 C43.2187029,146.019451 42.288104,153.891102 41.6332693,153.863237 C40.9781546,153.835225 40.7225478,145.913564 40.8390127,133.127824 C40.9549176,120.342085 41.4428941,102.692824 42.2752257,83.2108029 C42.4832386,78.3400182 42.70301,73.5857368 42.9309004,68.9940569 C43.0484851,66.6994743 43.16411,64.4456817 43.2772153,62.2379875 C43.3917204,60.043145 43.4852282,57.9184279 43.4967067,55.865792 C43.5087451,53.8137148 43.4390342,51.8339982 43.2427798,49.944802 C43.0476452,48.0558852 42.7119689,46.2622385 42.2251122,44.5943146 C41.7390955,42.925832 41.0946194,41.3875424 40.3168806,39.999841 C40.1127872,39.6581541 39.9106535,39.3200991 39.7107595,38.9856762 C39.4870687,38.6722071 39.2653375,38.3620906 39.046686,38.054768 C38.9904133,37.9790548 38.9408598,37.8980334 38.8801077,37.826511 L38.6975714,37.6116646 C38.5763472,37.4683405 38.4559629,37.3261339 38.3361385,37.1844861 C38.2146343,37.0439558 38.101529,36.8972791 37.9758254,36.7628953 C37.8459223,36.6321435 37.7165791,36.5022298 37.5880759,36.3731543 C37.4595726,36.2432406 37.3321892,36.1141651 37.2056457,35.9859277 C37.141254,35.9225075 37.0807819,35.8551759 37.0138706,35.7951083 L36.8100572,35.6199344 C36.5390524,35.3852516 36.2716872,35.1533627 36.0076816,34.924547 C35.7265982,34.7150089 35.4491543,34.5085439 35.17507,34.3043141 C35.0356481,34.205412 34.906025,34.0930996 34.7612839,34.0056523 C34.6182225,33.9151318 34.476281,33.8251701 34.3354593,33.7360465 C33.2223242,32.9920463 32.0663547,32.4575843 30.9714172,31.9871013 C28.7535459,31.1039677 26.694414,30.7030513 24.9939154,30.5376559 C24.7803032,30.5189371 24.5728502,30.5002184 24.3709964,30.4823378 C24.2699296,30.4728387 24.1699826,30.4636191 24.0719954,30.45412 C23.9737282,30.4518849 23.8774207,30.4499292 23.7822331,30.4482529 C23.3995229,30.4381951 23.0414495,30.4284166 22.7085729,30.4194763 C22.0375002,30.4342837 21.4686143,30.446856 21.0063944,30.4571932 C20.0853143,30.5262011 19.5603827,30.4896018 19.5141887,30.3328672 Z" id="Path" fill="#8DC9D6"></path>
                    </g>
                    <g id="Group" transform="translate(277.171386, 174.590591) rotate(2.000000) translate(-277.171386, -174.590591) translate(223.171386, 111.590591)">
                        <path d="M97.5367445,62.0249387 C94.7056612,68.2714019 88.9755487,72.9336172 82.4527329,75.0384037 C79.3498656,76.0342167 76.065809,76.4415947 72.8044011,76.1700093 C67.6858026,75.7399992 62.4313121,73.49942 59.7361208,69.1314222 C58.9207688,67.7961275 58.3545522,66.3476723 58.0148222,64.8313207 C57.4939029,62.6133737 57.3806596,60.2596339 57.4033082,57.9737905 C57.4486056,54.1263313 57.8336329,50.2336079 57.0862269,46.454045 C56.9276862,45.6166568 56.7011996,44.8019008 56.3841183,43.9871447 C55.3196309,41.1354985 53.417143,38.5780697 50.6313571,37.4011998 C47.4152465,36.0432731 43.4064326,36.6543401 40.6885927,34.4590252 C39.0125914,33.1010984 38.1972394,30.8605192 38.1292934,28.7104685 C38.0613474,26.5377856 38.6502127,24.410367 39.307024,22.3508447 C40.801836,17.6886295 42.7949186,13.2074711 45.1277312,8.90736964 C46.4640025,6.46310144 47.7323278,3.58882309 50.1330864,2.00457518 C53.1227103,0.0355813579 56.8823889,-0.462325127 60.1211481,0.420327278 C64.129962,1.48403659 67.39137,4.62990029 67.5272619,9.51843669 C67.5725593,11.2837415 67.1648833,13.0490463 67.2101806,14.8143511 C67.3687213,20.2234261 71.8531572,24.5687918 76.5867284,27.1714848 C81.3202996,29.7968099 86.6880334,31.3810578 90.9686313,34.6853463 C99.0315564,40.841281 101.726748,52.8136688 97.5367445,62.0249387 Z" id="Path" fill="#444444"></path>
                        <path d="M97.6084037,62.3677329 C94.7532311,68.6731499 88.9743619,73.379367 82.3960443,75.5040184 C79.8378097,75.2527155 77.3024165,74.8871841 74.7898646,74.4531155 C69.1480437,73.4707498 63.2092848,71.8715499 59.440457,67.5765556 C58.8008983,66.8454928 58.2298638,66.0458928 57.7501948,65.2234471 C54.6209257,59.8318586 54.8721809,52.772533 55.7629947,46.4214245 C55.8772016,45.667516 55.9685672,44.9136074 56.0827741,44.1596989 C57.0649534,37.5115961 58.0242914,30.6350362 55.3746913,24.5352306 C53.5245395,20.2630821 50.1896979,16.9732993 50.3039048,12.3356193 C52.1083739,14.5288079 55.3061671,14.5744993 58.00145,13.7063622 C60.6967329,12.8153793 62.7296158,10.1881222 62.8895054,7.35525369 C63.0037123,5.16206515 62.0900571,3.01456804 60.7880984,1.25544806 C60.5140019,0.88991664 60.0827291,0.67563689 59.7629498,0.332951181 C63.8058742,1.40669974 67.3650033,4.35638716 67.5020516,9.29106137 C67.5477344,11.0730271 67.1644979,13.0323854 67.2101806,14.8143511 C67.3700703,20.2744767 71.7291197,24.5580763 76.5029682,27.1853334 C81.2768167,29.8354362 86.6902238,31.4346362 91.0072447,34.7701104 C99.1159348,40.9841446 101.834059,53.0695273 97.6084037,62.3677329 Z" id="Path" fill="#222222"></path>
                        <path d="M46.4926064,39.9859224 C42.8784374,48.0533908 39.7581299,56.7292995 37.2439254,65.5178824 C35.3807202,71.9628432 33.8542388,78.4754085 32.6869296,84.8527648 C30.2849663,85.8442973 27.4564862,85.7766928 25.0994194,84.6724862 C22.7423526,83.5682796 20.8566992,81.4725406 20.048562,78.9937096 C19.0608388,75.9515078 19.6220451,72.6388881 20.5199754,69.5741515 C22.1362497,64.0531186 24.8300403,58.8701082 28.3319681,54.3180729 C33.0909982,48.1435301 39.3540613,43.1182635 46.4926064,39.9859224 Z" id="Path" fill="#F9BFBE"></path>
                        <path d="M46.4926064,39.9859224 C42.7915881,48.2130799 39.5962989,57.0607213 37.0216775,66.0232672 C32.9758437,63.1966181 29.7575669,59.1749629 27.8955639,54.6017664 C32.7689545,48.3050034 39.1825205,43.1802656 46.4926064,39.9859224 Z" id="Path" fill="#F05E5C"></path>
                        <path d="M72.7375647,62.8099247 C71.1675422,75.3452601 71.1675422,88.0842381 72.6920568,100.642201 C67.117339,102.859643 61.2695738,104.013617 55.3307928,104.149379 C49.3920118,104.013617 43.5442466,102.882269 37.9695288,100.642201 C39.4940435,88.0842381 39.4940435,75.3678871 37.9240209,62.8099247 C37.1731406,56.8364075 36.2174747,50.2745893 39.5395514,45.2287774 C41.1550819,42.7624388 43.5442466,41.0880438 46.2292128,39.866188 C49.0507026,38.5990783 52.2590096,37.8297617 55.3307928,37.1962069 C58.5390998,37.8523887 61.8839305,38.6669592 64.7964361,40.0472037 C67.3448785,41.2464326 69.5747656,42.8755736 71.1220343,45.2287774 C74.444111,50.2519623 73.4656911,56.8364075 72.7375647,62.8099247 Z" id="Path" fill="#F05E5C"></path>
                        <path d="M59.5105362,38.8625314 C59.1930258,39.2328564 58.852836,39.5800361 58.4899668,39.8809252 C57.4467181,40.8067378 56.2447141,41.4548066 54.8385963,41.709405 C52.9562127,42.0565848 50.9831118,41.7325504 49.2821628,40.8298831 C49.5996733,39.9735065 49.8945045,39.1171298 50.143977,38.2607532 C50.9604325,35.4601701 51.4593776,32.5670058 51.6634914,29.6275509 C51.7315294,28.5165758 51.7542087,27.4056007 51.7315294,26.2714803 C53.2056852,24.5124364 55.1107481,23.2394441 57.083849,22.128469 C57.5374354,21.8738705 57.9910218,21.6192721 58.4446082,21.3878189 C57.8095872,25.5076849 57.8095872,29.7201321 58.4219289,33.8399981 C58.6260428,35.2750076 58.9208739,36.7100171 59.283743,38.1218813 C59.3744603,38.3533344 59.4424983,38.6079329 59.5105362,38.8625314 Z" id="Path" fill="#F9BFBE"></path>
                        <path d="M58.3703056,21.5969797 C58.2588582,22.218582 58.1251213,22.8401843 58.0805424,23.4848088 C58.0582529,23.7150319 58.0359634,23.945255 58.0359634,24.1985003 C57.969095,24.2905896 57.924516,24.4057011 57.8576476,24.4977903 C56.8769104,26.201441 55.517252,27.7439355 53.7340935,28.457627 C51.950935,29.1713185 49.6996974,28.8720285 48.4514864,27.3755786 C48.29546,27.1914002 48.1617232,26.9841994 48.0502757,26.7769987 C47.2924334,25.4417049 47.2924334,23.7150319 47.6713546,22.1725374 C48.0948547,20.3998198 48.9195655,18.7652361 49.4099341,16.9925185 C49.6551184,16.1176708 49.7888553,15.150734 49.7442763,14.2298417 C49.6996974,13.4701056 49.543671,12.7564141 49.2093288,12.0887672 C49.8557237,12.6643249 50.6358556,13.1017487 51.4382769,13.4470833 C52.508172,13.9075294 53.6226461,14.252864 54.6702517,14.7363325 C54.960015,14.8744663 55.2497782,15.0126001 55.5395415,15.150734 C56.8546209,15.8644255 58.0582529,16.9694962 58.4371741,18.4429238 C58.7046479,19.4789276 58.5486215,20.5609759 58.3703056,21.5969797 Z" id="Path" fill="#F9BFBE"></path>
                        <g transform="translate(6.277511, 47.658326)" id="Group-3">
                            <g transform="translate(31.032286, 17.446273) scale(-1, 1) translate(-31.032286, -17.446273) translate(0.532286, 0.446273)">
                                <polyline id="path316" fill="#C0C0C0" transform="translate(13.882352, 28.310809) scale(-1, 1) rotate(-180.000000) translate(-13.882352, -28.310809) " points="-1.36427649e-14 33.1422918 0.130197569 30.0671131 15.2054668 23.4793255 27.7647046 24.3849086 14.9934935 27.4205869 -1.36427649e-14 33.1422918"></polyline>
                                <polyline id="path318" fill="#E7E7E7" transform="translate(28.021808, 25.287566) scale(-1, 1) rotate(-180.000000) translate(-28.021808, -25.287566) " points="56.0436165 23.3944729 15.6060072 21.1429505 1.94896641e-14 27.0958059 55.7887804 29.4321809 56.0436165 23.3944729"></polyline>
                                <polyline id="path320" fill="#E7E7E7" transform="translate(37.962539, 16.571146) scale(-1, 1) rotate(-180.000000) translate(-37.962539, -16.571146) " points="56.1710346 2.95375153 15.2054668 2.92361638e-14 19.4215274 32.6653611 60.719611 33.1422918 56.1710346 2.95375153"></polyline>
                                <path d="M41.1487743,13.2248274 C41.0280855,11.2754098 39.6922803,9.7703716 38.1666646,9.86546514 C36.6394032,9.96055868 35.4994429,11.6173808 35.6201317,13.5667984 C35.7415519,15.516216 37.0766256,17.0194254 38.6029728,16.9261606 C40.1302342,16.8310671 41.2701945,15.174245 41.1487743,13.2248274" id="path1348" fill="#F8F8F8" transform="translate(38.384504, 13.395736) scale(-1, 1) rotate(-180.000000) translate(-38.384504, -13.395736) "></path>
                                <polyline id="path322" fill="#C0C0C0" transform="translate(16.550890, 16.641369) scale(-1, 1) rotate(-180.000000) translate(-16.550890, -16.641369) " points="13.6802535 1.15867816 15.2054668 0.140445838 19.4215274 32.805807 17.6158773 33.1422918 13.6802535 1.15867816"></polyline>
                            </g>
                        </g>
                        <path d="M89.2278452,72.9571371 C89.1142142,74.857942 88.8869522,76.87189 88.3415233,78.9989812 C87.8188207,81.1260724 86.955225,83.3210494 85.6825577,85.425512 C85.0234978,86.4664289 84.2735332,87.4620886 83.4326637,88.3898624 C82.569068,89.2950076 81.6372937,90.1322669 80.5918884,90.8111258 C78.5465302,92.2141008 76.4329935,93.0287315 74.4330877,93.4586754 C72.4331819,93.8886194 70.5469071,93.9791339 68.7969896,93.8886194 C67.047072,93.7981049 65.4107855,93.4813041 63.9108561,93.0513601 C63.0472604,92.8024452 62.2291172,92.5309016 61.4564263,92.2141008 C60.865545,91.9651859 60.2746638,91.716271 59.7292349,91.4220988 C59.5701515,91.3542129 59.4110681,91.2636984 59.2519847,91.1731839 C59.0929013,91.0826693 58.9338179,90.9921548 58.7747345,90.9016403 C58.4565676,90.7206113 58.161127,90.5622109 57.8656864,90.3811818 C57.2975313,90.0191237 56.7521025,89.6570657 56.252126,89.272379 C55.7294234,88.9103209 55.2748993,88.5030056 54.8203753,88.1183189 C54.7976491,88.0956902 54.7749229,88.0730616 54.7521967,88.050433 C54.5476609,87.869404 54.3658513,87.6883749 54.1613154,87.5073459 C53.9340534,87.3036882 53.7295176,87.1226592 53.547708,86.9190015 C51.9568738,85.3349975 50.7751113,83.773622 49.843337,82.3480184 C49.2524558,81.4202446 48.7752055,80.5829853 48.3661339,79.8136119 C48.3206815,79.0216098 48.3888601,78.2069792 48.5479435,77.4149771 C48.6388483,76.9850332 48.7752055,76.5777179 49.0024676,76.2156598 C49.2979082,76.4419461 49.616075,76.690861 49.9569681,76.9850332 C50.7978375,77.6638921 51.8432428,78.4558941 53.0704577,79.2478961 C54.2976726,80.0398982 55.7521496,80.8319002 57.3429837,81.4655018 C57.5475195,81.5560163 57.7520554,81.6239022 57.9565912,81.6917881 C58.161127,81.759674 58.3656628,81.8275599 58.5701986,81.8954458 C58.7747345,81.9633317 58.9792703,82.0085889 59.1838061,82.0764748 C59.4110681,82.1443607 59.6383301,82.2122466 59.8655922,82.2575038 C60.29739,82.370647 60.751914,82.4385329 61.1837119,82.5290474 C61.4109739,82.5743047 61.6155097,82.5743047 61.8427717,82.5969333 C61.9564027,82.6195619 62.0700338,82.6195619 62.1609386,82.6421905 C62.2745696,82.6421905 62.3882006,82.6421905 62.5018316,82.6648192 C63.3881535,82.7327051 64.3199278,82.6874478 65.2062496,82.551676 C66.1152977,82.4159043 67.0016196,82.2348752 67.8197629,81.9180744 C68.6379061,81.6012736 69.3651446,81.2165869 69.9105735,80.7640143 C70.4560023,80.3114417 70.7968953,79.8362405 70.9105264,79.4289252 C70.978705,79.2478961 71.0014312,79.0216098 71.0241574,78.8405808 C71.0468836,78.6369231 71.0468836,78.4106368 71.0468836,78.1843505 C71.0468836,77.6865207 71.0468836,77.0755477 70.9559788,76.260917 C70.8878002,75.468915 70.7514429,74.5411412 70.5696333,73.5681101 C70.3878237,72.6177077 70.1378355,71.6673053 69.8423949,70.7621601 C69.3196922,69.0650129 68.6606323,67.4357516 67.9106677,65.8970048 C67.8652153,65.7838616 67.7970367,65.6707185 67.7515843,65.5575753 C67.3652388,64.7429447 66.9561672,63.9509426 66.5243694,63.1589406 C66.1152977,62.3895672 65.6834999,61.6201938 65.251702,60.8960776 C64.4108326,59.4252167 63.5699631,58.0222417 62.774546,56.7097812 C61.9791289,55.3746921 61.2518905,54.1074888 60.6155568,52.8629142 C59.9792232,51.6183396 59.4565205,50.4416508 59.0474489,49.2875907 C59.0247227,49.1970762 58.9792703,49.0839331 58.9565441,48.9934186 C58.8883655,48.8123895 58.8429131,48.6087319 58.7974607,48.4277028 C58.7065558,48.1561593 58.6383772,47.8619871 58.5929248,47.5904435 C58.4792938,47.0247278 58.4111152,46.4816407 58.388389,45.9611822 C58.3429366,44.8976366 58.5247462,43.9019769 58.9565441,42.9968317 C59.2065323,42.4763733 59.5701515,42.0238007 60.0019494,41.6164854 C60.3201162,41.3223132 60.6837354,41.0733982 61.0928071,40.8471119 C61.5927835,40.5755684 62.1382124,40.3719107 62.7518198,40.236139 C63.0472604,40.1682531 63.3881535,40.1003672 63.7290465,40.0551099 C63.8881299,40.0324813 64.0472133,40.0324813 64.2062967,40.0098527 C64.3881064,39.987224 64.5926422,39.987224 64.797178,39.987224 C66.2516549,39.9645954 67.9561201,40.236139 69.7742163,40.8697406 C71.5923124,41.5033422 73.569492,42.4763733 75.5466716,43.8793483 C77.5238512,45.2596947 79.5237569,47.069985 81.3418531,49.2875907 C81.4554841,49.4233625 81.5691151,49.5591343 81.6827461,49.6949061 C82.4781632,50.6905658 83.2508541,51.7541113 83.9553663,52.9308001 C84.7735096,54.2432606 85.5462005,55.6688642 86.2052603,57.1849824 C87.5461063,60.2172188 88.5460592,63.6341418 88.977857,67.2999798 C89.2505714,69.1328988 89.31875,71.0337036 89.2278452,72.9571371 Z" id="Path" fill="#F9BFBE"></path>
                        <path d="M81.8269873,49.764956 C81.1468061,52.1298012 79.9904981,54.3582131 78.5621176,56.3819749 C77.9953,57.1778363 77.4058096,57.9282199 76.7709738,58.6558646 C74.2543034,61.4982267 71.2388335,63.863072 68.11,66.0232672 C68.0646546,65.9095727 67.9966365,65.7958782 67.9512911,65.6821837 C67.5658551,64.8635834 67.1577464,64.067722 66.726965,63.2718607 C66.3188563,62.4987382 65.8880748,61.7256157 65.4572934,60.997971 C64.6184033,59.5199427 63.7795132,58.1101311 62.9859684,56.7912751 C62.1924237,55.4496802 61.4668971,54.176302 60.8320613,52.9256626 C60.1972256,51.6750233 59.6757533,50.4926007 59.2676446,49.3329169 C59.1769538,49.0373113 59.086263,48.7417056 58.9955721,48.4688389 C58.927554,48.1959721 58.8368632,47.9003664 58.7915178,47.6274997 C58.6781542,47.0590273 58.6101361,46.5132937 58.5874634,45.9902991 C58.542118,44.921571 58.7234997,43.9210595 59.1542811,43.0115036 C59.4036808,42.488509 59.7664441,42.0337311 60.1972256,41.6244309 C60.5146435,41.3288253 60.8774068,41.0786974 61.2855155,40.8513084 C61.784315,40.5784417 62.32846,40.3737916 62.940623,40.2373582 C63.2353682,40.1691415 63.5754588,40.1009249 63.9155494,40.0554471 C64.25564,40.0099693 64.5957306,39.9872304 64.9584939,39.9872304 C66.4095471,39.9644915 68.11,40.2373582 69.9464893,40.8740473 C71.7603058,41.5107365 73.7328312,42.488509 75.7053566,43.8983206 C77.6778821,45.2853933 79.6730802,47.1045051 81.4868967,49.3329169 C81.6002603,49.4920892 81.7136238,49.6285226 81.8269873,49.764956 Z" id="Path" fill="#F05E5C"></path>
                        <path d="M65.3663716,39.7489474 L65.3208464,39.9129306 C65.0249326,41.2482217 64.2929581,42.0291373 63.7011305,43.2707238 C62.7451014,45.3087998 61.4248707,47.1594666 59.8087263,48.7055932 C59.1713735,49.3146734 58.5112582,49.8534751 57.7828551,50.3454245 C55.574883,51.8681249 52.5474575,52.8285975 50.3394855,51.3058971 C48.4957151,50.0174582 47.9494127,47.5342851 47.5624485,45.2619475 C47.198247,43.2004454 46.8705791,41.822653 46.5063775,39.7611508 C47.8721334,39.1286444 49.3289397,38.6132689 50.7857459,38.1681718 C52.3791278,37.6996486 53.9815012,36.6176941 55.574883,36.2663017 C56.3260488,36.4302848 57.0772145,36.5942679 57.8283803,36.7816772 C58.5340208,36.9456604 59.2396613,37.1330696 59.9453019,37.3439051 C61.7663097,37.8592806 63.7729897,38.9758841 65.3663716,39.7489474 Z" id="Path" fill="#F9BFBE"></path>
                        <path d="M89.2274609,72.8853349 C89.1141293,74.7926503 88.8874661,76.8134964 88.3434743,78.9478731 C87.8221488,81.0822499 86.9608286,83.2847451 85.6915144,85.3964157 C85.034191,86.4408979 84.2862024,87.4399679 83.4475484,88.3709195 C82.5862281,89.2791649 81.6569088,90.1192919 80.6142579,90.800476 C78.5742888,92.2082564 76.4663207,93.0256773 74.4716842,93.4570939 C72.4770477,93.8885105 70.5957429,93.979335 68.8504359,93.8885105 C67.105129,93.7976859 65.4731537,93.4798 63.9771763,93.0483834 C63.115856,92.7986159 62.2998684,92.5261423 61.5292134,92.2082564 C65.7904822,92.1174319 69.9837521,91.5497785 73.7010292,89.5516385 C78.8916173,86.7587838 82.4275638,81.3320174 83.4248821,75.5192466 C84.4222003,69.7064759 83.0168882,63.6212315 80.0475998,58.5350571 C77.0783114,53.4488826 72.6130457,49.3390721 67.5811218,46.2737437 C66.0624781,45.3654983 64.4758355,44.5026652 62.9798581,43.5490075 C61.9825399,42.9132357 61.0078879,42.2093454 60.1465676,41.4146307 C59.6932412,40.9832141 59.262581,40.5290914 58.8545872,40.0522625 C58.7185893,39.8933196 58.5825913,39.7116705 58.4692597,39.5527276 C57.9479342,38.8488373 57.5172741,38.0995349 57.1772792,37.282114 C56.0666294,34.784439 55.6813019,31.9461721 55.8172998,29.1987296 C55.9532978,26.7918793 56.4519569,24.4531473 57.0639476,22.1144153 C57.5172741,21.8646478 57.9706006,21.6148803 58.423927,21.3878189 C57.78927,25.4295111 57.78927,29.5620278 58.4012607,33.60372 C58.6052576,35.0115004 58.6094419,35.7013488 58.9721031,37.0864231 C60.7400764,37.5632519 62.528733,38.3352948 64.1153756,39.1073035 L64.8708835,39.4090482 C65.0522141,39.3863421 65.2864836,39.8205188 65.4904805,39.8205188 C66.9411252,39.7978127 68.0344483,40.0295564 69.8477542,40.6653282 C71.6610601,41.3011 73.6330302,42.2774639 75.6050004,43.6852443 C77.5769705,45.0703185 79.571607,46.8868094 81.3849129,49.1120107 C81.4982445,49.2482475 81.6115762,49.3844843 81.7249078,49.5207212 C82.5182291,50.5197911 83.2888841,51.5869795 83.9915401,52.7676986 C84.8075278,54.0846545 85.5781828,55.515141 86.2355062,57.0364521 C87.5728193,60.0790743 88.5701375,63.5077008 89.0007977,67.1860948 C89.2501272,69.0479979 89.3181262,70.9553133 89.2274609,72.8853349 Z" id="Path" fill="#F69E9D"></path>
                        <path d="M59.5105362,82.7443474 C58.5611083,84.5343671 57.2725989,86.7322394 56.0519058,88.3409913 C55.5997973,88.2730158 55.1476887,88.1597235 54.6955802,88.0237726 C52.7741188,87.4119937 51.0787118,86.143119 49.9484404,84.4890501 C48.9990124,83.106883 48.4564822,81.4528141 48.3660605,79.7760868 C48.3208496,78.9830401 48.3886659,78.1673349 48.5469039,77.3742882 C48.6373256,76.9437771 48.7729581,76.5359245 48.9990124,76.1733889 C49.0668287,76.082755 49.134645,75.9694626 49.2024613,75.9014872 C49.5641481,75.4936346 50.1292838,75.2217329 50.6492086,75.3576837 C51.0561063,75.4709761 51.3725823,75.7655363 51.6664529,76.082755 C52.4350374,76.8758017 53.203622,77.6688484 53.9722065,78.4618951 C54.5373422,79.0510155 55.1702941,79.6627944 55.9614841,79.7534283 C56.7752795,79.8440623 57.5212586,79.2549418 57.7925237,78.4845536 C58.0863943,77.6915069 59.1940603,77.7141654 59.3749037,78.5298706 C59.3749037,78.552529 59.3749037,78.552529 59.3749037,78.5751875 C59.5331417,79.2776003 59.284482,80.0026716 59.126244,80.7277429 C59.0358223,81.1809124 58.9906114,81.6567404 59.1036385,82.0872515 C59.2166657,82.3138363 59.3296928,82.5404211 59.5105362,82.7443474 Z" id="Path" fill="#F9BFBE"></path>
                        <path d="M25.1060075,79.5954959 C25.3065529,81.650092 25.6407953,84.2356511 26.1533004,86.2209911 C26.5989569,86.3364178 27.0446134,86.4056739 27.5125528,86.4518446 C29.4957244,86.613442 31.5234617,86.1055643 33.1723909,84.9743822 C34.5539262,84.0509683 35.6680676,82.6889327 36.381118,81.1652996 C36.7153604,80.4265685 36.9604715,79.6416666 37.1164513,78.8336794 C37.1832998,78.3950578 37.2278655,77.9564361 37.161017,77.5178145 C37.1387341,77.4023878 37.1164513,77.286961 37.0718857,77.1715343 C36.9159059,76.6405713 36.4925322,76.1557789 35.9577443,76.0865229 C35.5566534,76.0172668 35.1555625,76.2019496 34.7767545,76.3635471 C33.7740272,76.8021687 32.7713,77.2638757 31.7908556,77.7024973 C31.0555223,78.0256922 30.2533406,78.3719724 29.4957244,78.1411189 C28.7381083,77.9102654 28.2701689,77.0561075 28.2924518,76.2481203 C28.3370174,75.3939624 27.3120074,74.9784261 26.8217852,75.6709866 C26.8217852,75.6940719 26.7995023,75.6940719 26.7995023,75.7171573 C26.3984115,76.3173764 26.3538458,77.1022782 26.2201488,77.817924 C26.1310175,78.279631 25.9750377,78.741338 25.7299266,79.1107036 C25.5293812,79.3184717 25.3511186,79.4800692 25.1060075,79.5954959 Z" id="Path" fill="#F9BFBE"></path>
                        <path d="M26.0358596,82.7615603 C26.0358596,82.7615603 54.6217397,110.30991 81.8269873,83.1429299 L57.2924711,111.588621 L26.0358596,82.7615603 Z" id="Path" fill="#422E7D"></path>
                        <g transform="translate(67.879205, 115.308241)" id="Path">
                            <path d="M0.0225010085,5.62043467 C2.52011296,7.30419358 5.35524003,8.39507963 8.30287215,8.89309283 C12.8030739,9.65197009 17.5282856,9.0116674 21.6459702,6.92475495 C22.2534974,6.61646107 22.8610247,6.26073735 23.3335458,5.73900924 C23.806067,5.21728113 24.1435822,4.52954862 24.0760791,3.81810119 C24.0085761,2.91693445 23.3335458,2.18177211 22.6360146,1.660044 C20.6109238,0.189719314 17.9783058,-0.118574571 15.5256959,0.118574571 C13.3881001,0.332008799 11.3180073,0.90116674 9.20291249,1.3280352 C8.88789837,1.39917994 8.55038324,1.44660977 8.23536912,1.51775451 C5.8052602,1.94462297 3.21764422,2.06319754 0.92254135,1.11460097 C0.562525213,2.63235548 0.360016136,4.07896525 0.0225010085,5.62043467 Z" fill="#F9BFBE"></path>
                            <path d="M8.30287215,8.89309283 C12.8030739,9.65197009 17.5282856,9.0116674 21.6459702,6.92475495 C22.2534974,6.61646107 22.8610247,6.26073735 23.3335458,5.73900924 C23.806067,5.21728113 24.1435822,4.52954862 24.0760791,3.81810119 C24.0085761,2.91693445 23.3335458,2.18177211 22.6360146,1.660044 C20.6109238,0.189719314 17.9783058,-0.118574571 15.5256959,0.118574571 C13.3881001,0.332008799 11.3180073,0.90116674 9.20291249,1.3280352 C10.9804922,1.70747382 12.7130698,2.30034668 14.3556434,3.08293885 C15.2781848,3.53352222 16.3132312,4.24496964 16.3132312,5.31214078 C16.3132312,6.37931192 15.2781848,7.09075935 14.3331424,7.49391289 C12.4205567,8.3476498 10.3729649,8.79823317 8.30287215,8.89309283 Z" fill="#444444"></path>
                        </g>
                        <path d="M71.6791081,123.547744 C69.9714364,124.419533 67.9905373,124.511301 66.1007139,124.534243 C56.4694457,124.763661 46.7698707,124.534243 37.3207541,122.653013 C28.8279337,120.955318 20.494496,117.858172 13.4133508,112.833913 C12.6164373,112.283309 11.8422929,111.686822 11.0909173,111.090334 C5.99067128,107.00669 1.61903181,101.59242 0.343970301,95.1457673 C-0.908322255,88.9285333 1.32303539,82.9407175 5.99067128,78.8111893 C10.5216934,74.7963703 19.6520446,79.1782585 24.2969115,81.5183245 C28.69132,83.7436813 32.7441941,86.5655255 36.7059923,89.5020789 C37.5712126,90.1444499 38.4364329,90.7868209 39.3016533,91.429192 C46.086802,96.476393 52.8719508,101.546536 59.6570995,106.593737 C63.5733599,109.507349 67.4896202,112.42096 71.3831116,115.334572 C72.6354042,116.275186 73.9787726,117.33051 74.3203069,118.867612 C74.7073791,120.748842 73.3867797,122.675955 71.6791081,123.547744 Z" id="Path" fill="#583EA6"></path>
                        <path d="M72.1130815,123.383547 C70.4199488,124.237984 67.9744476,124.511757 66.1007139,124.534243 C56.5514451,124.759095 46.7091252,123.984549 37.3404572,122.140763 C28.9199435,120.476859 20.434208,117.758171 13.4133508,112.833913 C17.4542944,113.710836 21.8539361,113.551418 25.9400298,112.989288 C29.890673,112.427158 33.8638912,111.145502 36.9115302,108.58219 C39.9817443,106.018877 42.0135037,102.061483 41.5620016,98.1040881 C41.1782248,94.7987642 39.1916157,91.9881147 36.7083543,89.6496543 C37.5662082,90.2792398 38.4240622,90.9088253 39.2819161,91.5384108 C46.009297,96.485154 52.7366779,101.454382 59.4640588,106.401126 C63.3469767,109.256746 67.2298945,112.112365 71.0902372,114.967985 C72.3318679,115.889878 73.6637991,116.924198 74.0024256,118.430706 C74.4087775,120.274492 73.8062143,122.529109 72.1130815,123.383547 Z" id="Path" fill="#422E7D"></path>
                        <g transform="translate(15.807486, 115.308241)" id="Path">
                            <path d="M24.0760791,5.62043467 C21.5784672,7.30419358 18.7433401,8.39507963 15.795708,8.89309283 C11.2955063,9.65197009 6.57029449,9.0116674 2.45260993,6.92475495 C1.8450827,6.61646107 1.23755547,6.26073735 0.76503429,5.73900924 C0.292513111,5.21728113 -0.0450020171,4.52954862 0.0225010085,3.81810119 C0.0900040341,2.91693445 0.76503429,2.18177211 1.46256555,1.660044 C3.48765632,0.189719314 6.12027432,-0.118574571 8.57288425,0.118574571 C10.7104801,0.332008799 12.7805728,0.90116674 14.8956676,1.3280352 C15.2106818,1.39917994 15.5481969,1.44660977 15.863211,1.51775451 C18.2933199,1.94462297 20.8809359,2.06319754 23.1760388,1.11460097 C23.5360549,2.63235548 23.738564,4.07896525 24.0760791,5.62043467 Z" fill="#F9BFBE"></path>
                            <path d="M15.818209,8.89309283 C11.3180073,9.65197009 6.5927955,9.0116674 2.47511094,6.92475495 C1.86758371,6.61646107 1.26005648,6.26073735 0.787535299,5.73900924 C0.315014119,5.21728113 -0.0225010085,4.52954862 0.0450020171,3.81810119 C0.112505043,2.91693445 0.787535299,2.18177211 1.48506656,1.660044 C3.51015733,0.189719314 6.14277533,-0.118574571 8.59538526,0.118574571 C10.7329811,0.332008799 12.8030739,0.90116674 14.9181687,1.3280352 C13.140589,1.70747382 11.4080113,2.30034668 9.7654377,3.08293885 C8.84289635,3.53352222 7.80784996,4.24496964 7.80784996,5.31214078 C7.80784996,6.37931192 8.84289635,7.09075935 9.78793871,7.49391289 C11.6780234,8.3476498 13.7481162,8.79823317 15.818209,8.89309283 Z" fill="#444444"></path>
                        </g>
                        <path d="M107.526805,95.1348102 C106.228342,101.562812 101.854572,107.003656 96.7746203,111.090028 C89.2344227,117.150716 79.9857211,120.777945 70.531999,122.660431 C61.078277,124.542918 51.3739743,124.749532 41.7380118,124.542918 C39.8244874,124.497003 37.8426227,124.428132 36.1568988,123.55576 C34.8356557,122.867046 33.7194331,121.535531 33.5144126,120.089231 C33.4460725,119.698959 33.4688525,119.285731 33.5599727,118.895459 C33.9016735,117.35733 35.2456967,116.301301 36.4985996,115.360058 C40.4167687,112.4445 44.3349379,109.528942 48.230327,106.613384 C55.0187828,101.562812 61.8072387,96.489282 68.5956945,91.4387093 C70.8281397,89.7857946 73.0605849,88.1099228 75.3613703,86.5258795 C78.0038565,84.6893076 80.7374629,82.9904786 83.6077496,81.5212211 C88.2321004,79.179592 97.3669017,74.7947766 101.922912,78.8122776 C106.547263,82.9216072 108.756928,88.9363801 107.526805,95.1348102 Z" id="Path" fill="#583EA6"></path>
                        <path d="M107.526626,95.1348102 C106.227469,101.562812 101.851361,107.003656 96.7686941,111.090028 C89.2244666,117.150716 79.970822,120.777945 70.5120473,122.660431 C61.0532727,124.542918 51.3437835,124.749532 41.702671,124.542918 C39.7881238,124.497003 37.8052,124.428132 36.1185751,123.55576 C34.7966259,122.867046 33.6798067,121.535531 33.4746766,120.089231 C50.9563156,123.808289 69.7371116,121.122302 85.4409567,112.559286 C90.2501169,109.942171 94.9453159,106.613384 97.5892143,101.792383 C100.233113,96.9713821 100.301489,90.3597233 96.4951874,86.4110938 C93.4410288,83.2430073 88.5862842,82.3935928 84.2785531,83.1741358 C81.1332256,83.7480645 78.1930282,85.0336648 75.3439997,86.5258795 C77.9878982,84.6893076 80.7229655,82.9904786 83.5947863,81.5212211 C88.2216086,79.179592 97.3612921,74.7947766 101.919738,78.8122776 C106.54656,82.9216072 108.757406,88.9363801 107.526626,95.1348102 Z" id="Path" fill="#422E7D"></path>
                        <path d="M58.8052662,21.6503938 C58.6871743,22.2667322 58.5454641,22.8830706 58.4982274,23.5222364 C58.474609,23.7505099 58.4509906,23.9787834 58.4509906,24.2298842 C58.3801355,24.3211936 58.3328988,24.4353304 58.2620437,24.5266398 C57.2228355,26.2158636 55.782115,27.745296 53.8926456,28.4529438 C52.0031761,29.1605916 49.774115,28.8593563 48.4514864,27.3755786 C48.2861578,27.1929598 48.0906077,26.887799 47.9725159,26.6823529 C48.7755404,27.0475905 49.5941026,27.3115763 50.4916006,27.220267 C52.38107,27.0148208 54.0343558,25.782144 55.0263273,24.2070569 C56.2544824,22.2210775 56.4906661,19.7328965 55.9002069,17.4729889 C55.6640232,16.6055496 55.333366,15.7381104 54.8846171,14.8706711 C55.1916558,15.0076352 55.4986946,15.1445993 55.8057334,15.2815634 C57.1992171,15.9892112 58.474609,17.084924 58.8761213,18.5458743 C59.1595417,19.5502777 58.9942131,20.6231631 58.8052662,21.6503938 Z" id="Path" fill="#F69E9D"></path>
                        <path d="M81.9615206,49.7501912 C81.2877147,52.1643987 80.0077114,54.658211 78.5927191,56.7242155 C75.7402741,52.6386335 71.9669611,49.2494576 67.7893646,46.6263283 C66.2845315,45.697787 64.9129247,44.7782434 63.4305517,43.803275 C64.0145168,42.5729577 65.0519289,41.0721188 65.3663716,39.7489474 C65.5460532,39.7257339 65.9881225,39.8386693 66.1902643,39.8386693 C67.6277169,39.8154558 68.4077978,40.1549877 70.2270737,40.8049666 C72.0238894,41.4549456 73.9275735,42.4433716 75.8816106,43.8826107 C77.8356477,45.2986363 79.7646725,47.029468 81.5614882,49.3043943 C81.651329,49.4668891 81.8492196,49.61091 81.9615206,49.7501912 Z" id="Path" fill="#C25151"></path>
                        <path d="M50.5293314,22.3406875 C51.2364433,22.6670942 51.9877497,22.8536123 52.7611533,22.8536123 C52.9379313,22.8536123 53.0484175,23.0401304 52.9821258,23.2033337 C52.8053478,23.5996847 52.5180836,23.9260914 52.1203332,24.0892947 C51.5899992,24.2758128 50.9712763,24.159239 50.5514287,23.8095176 C50.1978727,23.5297404 50.1978727,23.0401304 50.21997,22.5738351 C50.21997,22.3640022 50.3746507,22.2707432 50.5293314,22.3406875 Z" id="Path" fill="#F9DEE4" fill-rule="nonzero"></path>
                    </g>
                    <g id="Group" transform="translate(50.000000, 260.000000)" fill-rule="nonzero">
                        <g transform="translate(0.000000, 40.508717)">
                            <rect id="Rectangle" fill="#F9E8ED" x="0.934548724" y="0.990584562" width="42.580735" height="8.11796129"></rect>
                            <path d="M45.7538682,10.002488 L3.00643013,10.002488 C1.38702857,10.002488 0.0534037605,8.64949447 0.0534037605,7.00657373 L0.0534037605,3.11671728 C0.0534037605,1.47379654 1.38702857,0.120802995 3.00643013,0.120802995 L45.7300535,0.120802995 L45.7300535,1.88452673 L3.00643013,1.88452673 C2.33961772,1.88452673 1.79187896,2.44022051 1.79187896,3.11671728 L1.79187896,7.00657373 C1.79187896,7.68307051 2.33961772,8.23876428 3.00643013,8.23876428 L45.7300535,8.23876428 L45.7300535,10.002488 L45.7538682,10.002488 Z" id="Path" fill="#A894E3"></path>
                        </g>
                        <g transform="translate(1.834588, 11.968485)">
                            <rect id="Rectangle" fill="#F9E8ED" x="0.743438041" y="0.85028166" width="37.5972895" height="5.6596873"></rect>
                            <path d="M40.3395708,7.36025062 L2.59950676,7.36025062 C1.17176159,7.36025062 0.00576970192,6.05825683 0.00576970192,4.46397871 L0.00576970192,2.8962719 C0.00576970192,1.30199379 1.17176159,-2.0933218e-13 2.59950676,-2.0933218e-13 L40.3395708,-2.0933218e-13 L40.3395708,1.70056332 L2.59950676,1.70056332 C2.00461294,1.70056332 1.52869789,2.23198936 1.52869789,2.8962719 L1.52869789,4.46397871 C1.52869789,5.12826126 2.00461294,5.6596873 2.59950676,5.6596873 L40.3395708,5.6596873 L40.3395708,7.36025062 L40.3395708,7.36025062 Z" id="Path" fill="#A894E3"></path>
                        </g>
                        <g transform="translate(0.917294, 27.619580)">
                            <rect id="Rectangle" fill="#F9E8ED" x="1.22013531" y="1.23654855" width="38.6615424" height="10.2805712"></rect>
                            <path d="M42.0827061,12.7478924 L3.32546682,12.7478924 C1.50722597,12.7478924 0.0239242218,10.9861983 0.0239242218,8.83837939 L0.0239242218,3.91528894 C0.0239242218,1.76747007 1.50722597,0.00577593749 3.32546682,0.00577593749 L42.0827061,0.00577593749 L42.0827061,2.46732116 L3.32546682,2.46732116 C2.91875505,2.46732116 2.46419484,3.09477387 2.46419484,3.91528894 L2.46419484,8.83837939 C2.46419484,9.65889446 2.91875505,10.2863472 3.32546682,10.2863472 L42.0827061,10.2863472 L42.0827061,12.7478924 Z" id="Path" fill="#A894E3"></path>
                        </g>
                        <g transform="translate(7.338353, 0.000000)">
                            <rect id="Rectangle" fill="#F9E8ED" x="1.24219959" y="1.2790382" width="26.9006339" height="10.2805712"></rect>
                            <path d="M30.2659537,12.790382 L3.2719959,12.790382 C1.4988405,12.790382 0.0523189966,11.0286879 0.0523189966,8.88086904 L0.0523189966,3.9577786 C0.0523189966,1.80995972 1.4988405,0.0482655926 3.2719959,0.0482655926 L30.2426227,0.0482655926 L30.2426227,2.50981082 L3.2719959,2.50981082 C2.87536904,2.50981082 2.43208019,3.13726352 2.43208019,3.9577786 L2.43208019,8.88086904 C2.43208019,9.70138412 2.87536904,10.3288368 3.2719959,10.3288368 L30.2426227,10.3288368 L30.2426227,12.790382 L30.2659537,12.790382 Z" id="Path" fill="#D7CCF8"></path>
                        </g>
                        <g transform="translate(5.503765, 19.333706)">
                            <rect id="Rectangle" fill="#F9E8ED" transform="translate(18.726299, 4.576321) rotate(-180.000000) translate(-18.726299, -4.576321) " x="1.92724328" y="1.18425273" width="33.5981105" height="6.78413648"></rect>
                            <path d="M0.029459822,0.0990384888 L33.6987025,0.0990384888 C35.2873217,0.0990384888 36.5677014,1.68365431 36.5677014,3.61490484 L36.5677014,5.57091499 C36.5677014,7.50216552 35.2873217,9.08678134 33.6987025,9.08678134 L0.029459822,9.08678134 L0.029459822,6.85841535 L33.6987025,6.85841535 C34.0543635,6.85841535 34.457446,6.31370366 34.457446,5.57091499 L34.457446,3.61490484 C34.457446,2.87211617 34.0543635,2.32740449 33.6987025,2.32740449 L0.029459822,2.32740449 L0.029459822,0.0990384888 Z" id="Path" fill="#D7CCF8"></path>
                        </g>
                    </g>
                    <g id="Group" transform="translate(52.000000, 196.000000)" fill-rule="nonzero">
                        <path d="M23.8964609,45.2793326 C24.0957207,40.9642861 27.3605169,37.2080225 31.4683357,36.0904565 C33.5835557,35.5161517 35.8060696,35.6558475 37.9826004,35.4695865 C40.1591312,35.2988472 42.4582835,34.7245425 43.929741,33.0947587 C45.4011984,31.4649749 45.6004583,28.5313641 43.8377749,27.2120153 C41.615261,25.5511881 38.1665326,27.3982763 35.8213973,25.9392318 C33.7061772,24.619883 33.7828156,21.2982285 35.20829,19.2338357 C36.6337644,17.1694429 38.9482444,15.9587464 40.9561707,14.4841801 C42.580905,13.3045271 44.0676901,11.8765261 44.987351,10.076003 C45.9070119,8.27548001 46.1982379,6.07139148 45.4011984,4.2243032 C44.1749839,1.36830115 40.6189617,0.0489523753 37.6147361,0.716387637 C34.6105104,1.3838229 32.1427537,3.63447669 30.3800703,6.18004373 C28.6020592,8.72561077 27.3911723,11.6281781 25.8890595,14.3444844 C25.4905398,15.0584849 25.0153816,15.8190506 24.2643252,16.1294856 C23.2373705,16.5485729 22.0264837,15.9587464 21.3214103,15.0895284 C20.6163369,14.2203104 20.2484726,13.1182661 19.7579868,12.1093523 C17.2749023,6.98717474 10.9752251,4.11565094 5.53389806,5.65230422 C2.94351984,6.38182648 0.429780024,8.30652352 0.0465879795,11.0073081 C-0.336604065,13.8167449 1.70197761,16.4088772 4.03178525,17.9920957 C6.36159288,19.5753142 9.07459256,20.5376627 11.2511234,22.3381858 C12.3547165,23.253969 13.3050327,24.3870568 13.7648632,25.7529708 C14.2246936,27.1188848 14.1020722,28.7176251 13.243722,29.8662346 C12.0328351,31.4804967 9.81032128,31.7909317 7.84837801,32.1634537 C5.88643474,32.5359757 3.6485932,33.4051937 3.12745202,35.3609342 C2.6369662,37.1925008 4.04711293,39.1171978 5.80979633,39.784633 C7.55715206,40.4520683 9.51909533,40.1571551 11.3430895,39.722546 C13.1670836,39.287937 15.0064054,38.7136323 16.8763826,38.8378063 C20.2944556,39.0706325 23.359992,41.8490258 23.8964609,45.2793326 Z" id="Path" fill="#D7CCF8"></path>
                        <path d="M30.1380323,63.5020477 C28.1014833,63.7794887 26.0027495,63.9182093 23.8573773,63.9182093 C21.712005,63.9182093 19.6132713,63.7794887 17.5767222,63.5020477 C16.7683211,62.0994291 16.053197,60.6505703 15.4468961,59.1554713 C13.4103471,54.1461191 12.5242151,48.6589518 12.9439618,43.2642648 C13.1149698,43.2026112 13.3015239,43.156371 13.4725318,43.0947175 C19.8775562,41.1372168 26.7334198,41.0447364 33.1850827,42.801863 C33.5270986,42.8943434 33.8846607,43.0022371 34.2266765,43.0947175 C34.3976845,43.1409576 34.5842386,43.2026112 34.7552465,43.2642648 C35.2993627,50.2773579 33.651468,57.4137581 30.1380323,63.5020477 Z" id="Path" fill="#E7E1F7"></path>
                        <path d="M30.1737972,63.4954648 C28.1526825,63.7772944 26.0698544,63.9182093 23.9407413,63.9182093 C21.8116281,63.9182093 19.7288,63.7772944 17.7076854,63.4954648 C16.9054108,62.0706595 16.1957064,60.5988827 15.5940006,59.0801342 C18.3093913,59.6281362 21.071067,59.7377366 23.6630309,58.8452761 C27.088126,57.6553289 29.818945,54.8057183 31.3463523,51.4707345 C32.6423342,48.6680955 33.15147,45.5679697 33.197755,42.4835011 C33.5371789,42.5774444 33.8920311,42.6870448 34.2314549,42.780988 C34.4011668,42.8279596 34.5863071,42.8905884 34.756019,42.9532172 C35.2960115,50.0615864 33.6606057,57.3108705 30.1737972,63.4954648 Z" id="Path" fill="#A894E3"></path>
                        <path d="M42.1955309,30.6473191 C42.1955309,30.7088101 41.8921835,30.7549284 41.3764929,30.7856739 C41.2399865,30.7856739 41.1034802,30.8010467 40.9366391,30.8164194 C40.7849654,30.8317922 40.602957,30.8471649 40.4209485,30.8625377 C40.0569316,30.8932832 39.6322452,30.9240287 39.1772241,30.9855197 C38.9497135,31.0162653 38.7070356,31.0470108 38.4643577,31.0777563 C38.2216797,31.1085018 37.9638344,31.1699928 37.6908218,31.2161111 C37.1599638,31.2929749 36.5987711,31.4467024 35.9920762,31.5850572 C34.8090213,31.8925123 33.5349622,32.3229495 32.2457356,32.8763687 C30.9565091,33.4605334 29.7886216,34.1215619 28.7572403,34.7825903 C28.2567171,35.1361637 27.7713612,35.4436188 27.3466748,35.7971922 C27.1343317,35.9662925 26.9219885,36.1200201 26.7248126,36.2737476 C26.5276368,36.4428479 26.3456284,36.5965755 26.1636199,36.750303 C25.799603,37.0423854 25.4962556,37.3344678 25.2232429,37.5804318 C25.0867366,37.7034139 24.9502303,37.8263959 24.8440587,37.9340052 C24.7378871,38.0416145 24.6317155,38.1492238 24.5255439,38.2414603 C24.1463596,38.6104065 23.918849,38.7948795 23.8581796,38.7487613 C23.8126774,38.7180158 23.9491838,38.4566789 24.2676986,38.010869 C24.3435354,37.9032597 24.4345396,37.7802777 24.5255439,37.6419229 C24.6317155,37.5189408 24.7378871,37.380586 24.859226,37.2422312 C25.101904,36.9501489 25.390084,36.6119482 25.7237662,36.2891204 C25.8906072,36.1200201 26.0726157,35.9509198 26.2546241,35.7664467 C26.4366326,35.5819736 26.6489758,35.4128733 26.861319,35.2284003 C27.2860054,34.8440814 27.7713612,34.490508 28.2870518,34.1215619 C29.3336004,33.3990424 30.5318227,32.6918956 31.8665514,32.0923581 C33.20128,31.5081934 34.5360086,31.093129 35.779733,30.8164194 C36.4015952,30.6934374 36.9931227,30.5704553 37.5543154,30.5243371 C37.8273281,30.4935916 38.1003408,30.4474733 38.3581861,30.4321005 C38.6160314,30.4167278 38.8738767,30.401355 39.1013873,30.3859823 C39.5715758,30.3552368 40.0114295,30.3706095 40.3906138,30.3859823 C40.5726222,30.401355 40.7546307,30.401355 40.9214718,30.4167278 C41.0731455,30.4321005 41.2248192,30.4474733 41.3613255,30.4782188 C41.9073509,30.5243371 42.1955309,30.5858281 42.1955309,30.6473191 Z" id="Path" fill="#E7E1F7"></path>
                        <path d="M41.2737411,4.27590055 C41.3194784,4.32195899 41.0145632,4.7211322 40.4352244,5.39665609 C40.2827669,5.56553706 40.1303093,5.74977085 39.9473602,5.94935745 C39.7796569,6.16429687 39.581462,6.37923629 39.3832672,6.62488134 C38.9868775,7.11617144 38.4990133,7.65351999 38.0111491,8.28298543 C37.767217,8.59004174 37.5080391,8.92780368 37.2336155,9.26556563 C36.9591918,9.60332757 36.700014,9.97179515 36.4255903,10.3556155 C36.1511667,10.7394359 35.8462516,11.1079035 35.5718279,11.5224295 C35.2821585,11.9369555 34.9924892,12.3514816 34.687574,12.7813604 C33.5136507,14.5315814 32.2939901,16.4967418 31.1505584,18.6307832 C30.0071266,20.7801774 29.0466439,22.8835131 28.2386187,24.8179679 C28.0404239,25.309258 27.8574748,25.7851952 27.6745257,26.2457797 C27.4763309,26.7063642 27.3391191,27.1669487 27.1714158,27.6121803 C27.0189582,28.057412 26.8512549,28.471938 26.714043,28.886464 C26.5768312,29.30099 26.4548652,29.7001632 26.3328991,30.0839836 C26.0737212,30.8362716 25.8907722,31.5425011 25.7078231,32.1412609 C25.6163485,32.4483172 25.524874,32.7246679 25.4486452,32.9856658 C25.3724164,33.2466636 25.3114334,33.4923087 25.2504504,33.7072481 C25.0065182,34.5670058 24.8388149,35.0429431 24.7930776,35.0275903 C24.7320946,35.0122374 24.7778319,34.5209473 24.9302895,33.630484 C24.960781,33.4001918 25.0065182,33.1545468 25.0522555,32.8935489 C25.0979928,32.6171982 25.1742216,32.3408475 25.2352046,32.0184384 C25.3724164,31.388973 25.524874,30.6827434 25.7383146,29.8997498 C25.8450349,29.5159294 25.9517552,29.1014034 26.0737212,28.6715246 C26.1956873,28.2416458 26.3481449,27.8117669 26.4853567,27.3665353 C26.6378143,26.9213036 26.7750261,26.4453663 26.9579752,25.969429 C27.1256785,25.4934918 27.3086276,25.0022017 27.4915767,24.5109116 C28.2691103,22.5303983 29.229593,20.3810041 30.3882705,18.2009043 C31.5621938,16.0361573 32.8123459,14.0556441 34.0320065,12.3054231 C34.3521674,11.8755443 34.6570825,11.4610183 34.9467519,11.0464922 C35.2364213,10.6319662 35.5565822,10.2634986 35.8462516,9.89503107 C36.1511667,9.52656349 36.4255903,9.15809592 36.7152597,8.83568679 C37.0049291,8.49792485 37.2793527,8.19086853 37.5385306,7.88381222 C38.0568863,7.26969959 38.5752421,6.76305668 39.017369,6.30247221 C39.2460554,6.07217997 39.4442502,5.85724056 39.6424451,5.67300677 C39.8406399,5.48877298 40.023589,5.31989201 40.1912923,5.16636385 C40.8468599,4.55225123 41.2432496,4.24519491 41.2737411,4.27590055 Z" id="Path" fill="#E7E1F7"></path>
                        <path d="M5.5055291,9.87903279 C5.53597201,9.81616049 5.94695135,9.97334123 6.6775813,10.3191388 C6.86023878,10.3977292 7.05811773,10.4920377 7.28643959,10.6020642 C7.49953999,10.7120907 7.72786184,10.8535534 7.97140516,10.995016 C8.45849179,11.2779413 9.03690716,11.5923028 9.61532253,12.0166908 C9.91975168,12.2210258 10.2241808,12.4410788 10.5438314,12.6611318 C10.7112674,12.7711583 10.863482,12.8969029 11.0156966,13.0226475 C11.1831326,13.1483921 11.3353472,13.2741367 11.5027832,13.4155993 C11.6702192,13.5413439 11.8376553,13.6828066 12.0050913,13.8242693 C12.0964201,13.8871415 12.1725273,13.9657319 12.2638561,14.0286042 C12.3399634,14.1071946 12.4312921,14.1857849 12.5073994,14.2486572 C12.8422715,14.5630187 13.192365,14.8773802 13.5424585,15.1917417 C14.9123896,16.5277779 16.3127637,18.1310214 17.5913661,19.9543179 C18.854747,21.7933326 19.8593632,23.6795014 20.6356575,25.4556437 C20.818315,25.9114678 21.0009725,26.3515739 21.1684085,26.7759619 C21.2140729,26.8859884 21.2597373,26.9960149 21.2901802,27.0903233 C21.3358446,27.2003499 21.3662875,27.3103764 21.3967304,27.4046848 C21.4728377,27.6090198 21.5337235,27.8290728 21.6098308,28.0334078 C21.6707166,28.2377427 21.7468239,28.4420777 21.8077097,28.6306946 C21.8685956,28.8350295 21.9447028,29.0236464 21.9903672,29.2122633 C22.0969174,29.6052151 22.1882462,29.9667308 22.2795749,30.3282465 C22.4774538,31.0355598 22.5687826,31.6957189 22.6753328,32.2772876 C22.7209972,32.560213 22.781883,32.8274202 22.8123259,33.0789094 C22.8427688,33.3303986 22.8579903,33.5504516 22.8732117,33.7547865 C22.949319,34.5721264 22.949319,35.0279505 22.8884332,35.0279505 C22.8275474,35.0279505 22.7057757,34.6035625 22.5383397,33.8019408 C22.4926753,33.5976058 22.4470109,33.3775528 22.4013466,33.1417817 C22.3404607,32.9060106 22.2643534,32.6388033 22.2034676,32.3715961 C22.051253,31.8214635 21.9294814,31.1770225 21.6859381,30.5011453 C21.5793879,30.1553477 21.4728377,29.793832 21.351066,29.4165982 C21.3054016,29.2279814 21.2140729,29.0393645 21.1531871,28.8507476 C21.0770798,28.6621307 21.016194,28.4577958 20.9400867,28.2691789 C20.8639794,28.0648439 20.7878721,27.876227 20.7117648,27.6718921 C20.6661004,27.5775836 20.6356575,27.4675571 20.5899931,27.3575306 C20.5443288,27.2632222 20.4986644,27.1531956 20.453,27.0588872 C20.2703425,26.6502173 20.0876851,26.2258293 19.9050276,25.7857232 C19.0982903,24.0724532 18.0936742,22.2491567 16.8759576,20.4572963 C15.6277981,18.681154 14.2883099,17.1093466 12.9792646,15.7733104 C12.6443925,15.4432308 12.3095205,15.1288694 11.9898698,14.830226 C11.9137626,14.7516356 11.8376553,14.6730452 11.7463265,14.5944549 C11.6702192,14.5158645 11.5788905,14.4529922 11.5027832,14.3744018 C11.3353472,14.2329392 11.1831326,14.0914765 11.0156966,13.9657319 C10.863482,13.8242693 10.7112674,13.6985247 10.5590529,13.5727801 C10.4068383,13.4470355 10.2698452,13.3055728 10.1024092,13.1955463 C9.79798002,12.9597752 9.50877233,12.7397222 9.21956465,12.5196691 C8.67159219,12.063845 8.12361973,11.7337655 7.66697601,11.4036859 C7.43865416,11.2465052 7.22555376,11.0893245 7.02767481,10.9635799 C6.82979587,10.8378353 6.63191693,10.7278088 6.4644809,10.6177822 C5.84040115,10.1933943 5.47508618,9.94190508 5.5055291,9.87903279 Z" id="Path" fill="#E7E1F7"></path>
                        <path d="M6.42413069,35.8124717 C6.39359769,35.7490056 6.59206217,35.606207 6.95845812,35.3999424 C7.05005711,35.3523429 7.15692259,35.2888768 7.27905458,35.2254108 C7.40118656,35.1619447 7.52331854,35.1143452 7.66071703,35.0508792 C7.93551399,34.9398136 8.25611045,34.797015 8.6225064,34.7018159 C8.80570437,34.6542164 9.00416885,34.5907503 9.20263332,34.5272843 C9.4010978,34.4638183 9.61482877,34.4320852 9.82855974,34.3844857 C10.2712882,34.2734201 10.7445496,34.2258206 11.2483441,34.1623546 C12.2559329,34.0671555 13.3703873,34.0671555 14.5306411,34.2099541 C15.690895,34.3686192 16.7748163,34.6542164 17.7213392,35.0032796 C18.1946006,35.1936778 18.6373291,35.3682094 19.034258,35.574474 C19.2327225,35.6855396 19.431187,35.7648721 19.6143849,35.8759377 C19.7975829,35.9870033 19.9655144,36.0822024 20.1334459,36.1932679 C20.4693088,36.3836661 20.7441058,36.6057972 20.9883698,36.7803288 C21.1105017,36.8755279 21.2173672,36.9548604 21.3242327,37.034193 C21.4158317,37.1293921 21.5074307,37.2087246 21.5837632,37.2721907 C21.8890931,37.5736544 22.0417581,37.7640525 22.0112251,37.811652 C21.9806921,37.8592515 21.7516947,37.7640525 21.3852987,37.5736544 C21.2936997,37.5260548 21.1868342,37.4625888 21.0799687,37.3991227 C20.9731033,37.3356567 20.8509713,37.2721907 20.7135728,37.2087246 C20.4540423,37.0817925 20.1639789,36.9072609 19.8281159,36.7485958 C19.6601844,36.6692632 19.492253,36.5899307 19.309055,36.4947316 C19.125857,36.4153991 18.9273925,36.3360665 18.7289281,36.256734 C18.3319991,36.0822024 17.9045372,35.9394038 17.4465422,35.7807386 C16.5305524,35.4951415 15.507697,35.2412773 14.4085091,35.0984787 C13.3093213,34.9556801 12.2559329,34.9398136 11.2941435,34.9874131 C10.8208821,35.0191461 10.3628872,35.0508792 9.93542523,35.1143452 C9.72169425,35.1460782 9.52322978,35.1619447 9.32476531,35.1936778 C9.12630083,35.2254108 8.94310286,35.2730103 8.75990488,35.3047433 C8.39350893,35.3682094 8.08817897,35.4634084 7.79811551,35.5268745 C7.66071703,35.5586075 7.52331854,35.5903405 7.40118656,35.6220735 C7.27905458,35.6538066 7.17218909,35.6855396 7.06532361,35.7172726 C6.68366116,35.8283382 6.45466369,35.8600712 6.42413069,35.8124717 Z" id="Path" fill="#E7E1F7"></path>
                    </g>
                    <g id="Group" opacity="0.5" transform="translate(186.000000, 61.000000)">
                        <rect id="Rectangle" fill="#C5B8EC" x="0.0081316452" y="0.13366397" width="53.4386533" height="75.7206389"></rect>
                        <polygon id="Rectangle" fill="#FFFFFF" fill-rule="nonzero" transform="translate(26.707553, 37.969593) rotate(90.000000) translate(-26.707553, -37.969593) " points="-7.72752363 14.6740997 61.1426298 14.6740997 61.1426298 61.2650864 -7.72752363 61.2650864"></polygon>
                        <rect id="Rectangle" fill="#C5B8EC" transform="translate(26.707553, 37.969490) rotate(90.000000) translate(-26.707553, -37.969490) " x="0.225379049" y="22.6629406" width="52.9643481" height="30.6130979"></rect>
                    </g>
                </g>
            </g>
        </g>
    </g>
</svg>