<?xml version="1.0" encoding="UTF-8"?>
<svg width="126px" height="32px" viewBox="0 0 126 32" version="1.1" xmlns="http://www.w3.org/2000/svg" xmlns:xlink="http://www.w3.org/1999/xlink">
    <title>logo-kzas-horizontal-white</title>
    <g id="logo-kzas-horizontal-white" stroke="none" stroke-width="1" fill="none" fill-rule="evenodd">
        <g id="K">
            <rect id="Rectangle" x="0" y="0" width="32" height="32"></rect>
            <path d="M15.9777778,15.9777778 L32,32 L20,32 L9.97777778,21.9777778 L15.9777778,15.9777778 Z" id="Combined-Shape" fill="#FFFFFF"></path>
            <path d="M9.53,0 L9.53,9.529 L19.1454317,0 L32,0 L0,32 L8.8817842e-16,0 L9.53,0 Z" id="Combined-Shape" fill="#FFFFFF" opacity="0.900000036"></path>
            <path d="M9.53,9.52911111 L16,15.9991111 L0,32 L0,18.9743702 L9.53,9.52911111 Z" id="Combined-Shape" fill="#000000" opacity="0.049999997"></path>
        </g>
        <path d="M61.5604396,31.3846154 L61.5604396,24.4835165 L45.3846154,24.4835165 L60.9010989,6.06593407 L60.9010989,0.615384615 L34.3956044,0.615384615 L34.3956044,7.51648352 L49.5164835,7.51648352 L34,25.9340659 L34,31.3846154 L61.5604396,31.3846154 Z M72.3902994,31.3846154 L74.8078818,25.4065934 L87.8188708,25.4065934 L90.2364532,31.3846154 L99.2913983,31.3846154 L85.6650246,0.615384615 L77.0935961,0.615384615 L63.5111785,31.3846154 L72.3902994,31.3846154 Z M85.2694202,18.989011 L77.3573323,18.989011 L81.3133763,9.14285714 L85.2694202,18.989011 Z M112.566124,32 C115.496526,32 117.987369,31.5531136 120.038651,30.6593407 C122.089933,29.7655678 123.628395,28.5714286 124.654036,27.0769231 C125.679677,25.5824176 126.192497,23.9120879 126.192497,22.0659341 C126.192497,19.9267399 125.628395,18.2344322 124.500189,16.989011 C123.371984,15.7435897 122.038651,14.8351648 120.500189,14.2637363 C118.961728,13.6923077 117.020336,13.1575092 114.676014,12.6593407 C112.595428,12.2197802 111.08627,11.7948718 110.148541,11.3846154 C109.210812,10.974359 108.741948,10.3589744 108.741948,9.53846154 C108.741948,8.71794872 109.137552,8.05128205 109.928761,7.53846154 C110.71997,7.02564103 111.980043,6.76923077 113.708981,6.76923077 C116.463559,6.76923077 119.30605,7.56043956 122.236453,9.14285714 L122.236453,9.14285714 L124.917772,2.68131868 C123.423266,1.8021978 121.694329,1.13553114 119.730959,0.681318681 C117.767589,0.227106227 115.774915,-8.70414851e-14 113.752937,-8.70414851e-14 C110.79323,-8.70414851e-14 108.295061,0.43956044 106.258431,1.31868132 C104.221801,2.1978022 102.690666,3.39194139 101.665025,4.9010989 C100.639384,6.41025641 100.126563,8.1025641 100.126563,9.97802198 C100.126563,12.1172161 100.68334,13.8168498 101.796893,15.0769231 C102.910446,16.3369963 104.243779,17.2527473 105.796893,17.8241758 C107.350006,18.3956044 109.284072,18.9304029 111.599091,19.4285714 C113.708981,19.8974359 115.240116,20.3443223 116.192497,20.7692308 C117.144878,21.1941392 117.621069,21.8461538 117.621069,22.7252747 C117.621069,24.3956044 115.950739,25.2307692 112.61008,25.2307692 C110.851838,25.2307692 109.064292,24.952381 107.247442,24.3956044 C105.430592,23.8388278 103.833523,23.1062271 102.456233,22.1978022 L102.456233,22.1978022 L99.5990906,28.6153846 C101.064292,29.6410256 102.969054,30.4615385 105.313376,31.0769231 C107.657699,31.6923077 110.075281,32 112.566124,32 Z" id="ZAS" fill="#FFFFFF" fill-rule="nonzero"></path>
    </g>
</svg>